<svg version="1.1" id="Layer_1" xmlns="http://www.w3.org/2000/svg" xmlns:xlink="http://www.w3.org/1999/xlink" x="0px" y="0px"
	 width="100%" viewBox="0 0 1200 867" enable-background="new 0 0 1200 867" xml:space="preserve">
<path fill="#000000" opacity="1.000000" stroke="none" 
	d="
M746.000000,868.000000 
	C497.363281,868.000000 249.226578,868.000000 1.044930,868.000000 
	C1.044930,579.064819 1.044930,290.129669 1.044930,1.097254 
	C400.886871,1.097254 800.773743,1.097254 1200.830322,1.097254 
	C1200.830322,289.999908 1200.830322,578.999939 1200.830322,868.000000 
	C1049.462769,868.000000 897.981384,868.000000 746.000000,868.000000 
M667.951904,625.550964 
	C666.580688,626.043762 665.175842,626.459656 663.843323,627.041077 
	C649.442688,633.325439 634.253052,636.670959 618.805420,638.925842 
	C614.748840,639.518005 610.201721,639.895447 610.657104,633.301331 
	C610.778015,631.549500 610.034241,629.752441 610.030457,627.975403 
	C609.983398,605.976318 609.999878,583.977112 609.999939,561.977905 
	C610.000000,555.311462 609.744080,548.631470 610.098083,541.983826 
	C610.304199,538.113403 610.276123,533.635071 616.025513,532.974060 
	C635.981079,530.679932 653.542908,522.458252 668.663086,509.645874 
	C683.891907,496.741486 694.931458,480.665161 700.953552,461.352844 
	C704.512207,449.940308 704.704224,450.104553 716.278809,449.977722 
	C740.041992,449.717346 763.803528,449.306091 787.566406,449.014679 
	C795.679016,448.915192 801.111938,443.683411 800.959595,435.523712 
	C800.811523,427.591858 800.914429,419.588654 799.869385,411.755219 
	C798.129517,398.712830 796.353394,385.582886 793.169617,372.845520 
	C787.286682,349.309357 775.964478,328.135376 762.595093,308.007660 
	C761.804993,306.818176 761.603333,304.792267 761.955078,303.358612 
	C765.620239,288.420105 772.142151,274.666382 779.919312,261.491821 
	C785.039795,252.817627 789.755920,243.807068 798.453430,237.852539 
	C799.739807,236.971832 800.278015,234.894409 800.987976,233.293350 
	C804.066406,226.350998 799.965881,221.275116 795.938110,216.676254 
	C793.572876,213.975632 794.015137,212.205276 795.667603,209.834305 
	C800.222839,203.298599 804.697205,196.705734 809.309570,190.210815 
	C813.585083,184.190201 817.997742,178.266953 822.584900,171.978821 
	C856.106506,202.038330 882.609192,235.760071 902.860657,275.581055 
	C887.157898,283.785156 871.976990,291.796173 856.666321,299.550964 
	C855.551941,300.115417 853.423706,298.993134 851.894836,298.350403 
	C849.572327,297.374054 847.473328,295.715210 845.084167,295.075043 
	C836.289429,292.718445 827.273499,304.969086 831.466614,314.554626 
	C838.245056,330.050507 843.239380,346.388885 848.150330,362.624603 
	C854.883484,384.884338 856.895996,407.922607 856.880981,431.066895 
	C856.872437,444.259705 855.562988,457.447693 855.044800,470.645905 
	C854.789978,477.134247 857.881409,481.344604 862.777405,481.990509 
	C870.819946,483.051514 875.924377,480.968079 876.801514,474.072754 
	C878.560913,460.240845 879.140869,446.249054 879.906189,432.306702 
	C880.129028,428.246155 879.277649,424.132965 879.009888,420.037933 
	C878.300171,409.183228 878.732971,398.117920 876.720886,387.514008 
	C873.129211,368.585205 868.176453,349.908936 863.573486,331.180969 
	C861.993164,324.751190 862.069702,323.929932 867.794678,321.030365 
	C885.780579,311.920898 903.818054,302.910431 921.700378,293.601990 
	C925.359558,291.697235 930.851135,290.389465 930.665466,285.217957 
	C930.497620,280.542206 929.085815,275.545258 926.906799,271.377899 
	C920.972778,260.029175 914.510925,248.944168 907.951843,237.937164 
	C895.813660,217.567627 881.366943,198.855804 865.575684,181.235382 
	C857.523743,172.250732 848.805908,163.820602 839.950195,155.613281 
	C834.109619,150.200287 827.748962,145.241150 821.135498,140.802429 
	C815.561829,137.061646 810.179871,139.259369 806.907654,145.241425 
	C802.719116,152.898712 798.663574,160.667160 793.901489,167.963974 
	C785.228882,181.252808 777.651245,195.360962 766.006226,206.526611 
	C759.555603,212.711639 758.520020,219.802826 764.446594,226.477768 
	C768.862061,231.450867 767.536255,235.316238 765.020813,239.973434 
	C759.395569,250.388214 753.413208,260.644867 748.443420,271.367798 
	C744.592896,279.675568 742.225769,288.658722 738.878357,297.216156 
	C736.606750,303.023560 734.913757,309.626648 730.944031,314.071594 
	C724.435303,321.359406 716.379639,327.294403 708.806580,333.595978 
	C698.129517,342.480347 687.161560,351.020447 676.631531,360.072418 
	C674.130737,362.222168 672.368835,362.116760 670.203003,360.600281 
	C668.062439,359.101471 666.209900,357.197418 664.109802,355.633820 
	C654.450928,348.442291 644.336487,342.082672 632.515991,338.999329 
	C625.368835,337.135040 618.201843,335.346924 609.999695,333.258789 
	C609.999695,322.767181 610.129883,312.350739 609.963684,301.939026 
	C609.791992,291.177917 609.370239,280.419922 608.945190,269.665009 
	C608.898010,268.471985 608.368774,267.106445 607.626282,266.165619 
	C604.412903,262.093903 599.931763,261.105499 595.236206,262.373047 
	C589.827393,263.833160 587.217896,267.691925 587.024109,273.664978 
	C586.615540,286.260529 586.282471,298.859131 586.022278,311.458618 
	C585.894958,317.622437 585.819763,323.798462 586.072693,329.954529 
	C586.209167,333.275055 585.017822,334.489655 581.807190,335.075165 
	C568.626526,337.478821 555.954651,341.573792 544.775024,349.098419 
	C521.404846,364.828003 504.937927,385.429352 499.896393,413.979431 
	C498.040131,424.491577 497.138184,425.763885 490.014313,425.883789 
	C470.813416,426.206818 451.603516,425.994232 430.760681,425.994232 
	C432.503021,413.533417 433.425995,402.619263 435.683319,391.988464 
	C437.994354,381.104767 441.657379,370.511108 444.640839,359.766083 
	C446.283142,353.851288 443.974854,348.588287 439.041229,346.551758 
	C432.942871,344.034393 426.653503,346.095428 424.059143,351.866364 
	C411.765411,379.212616 406.888123,408.022400 408.176910,437.828827 
	C408.461395,444.407837 412.051941,448.889862 419.220001,449.015411 
	C435.316589,449.297363 451.410919,449.710571 467.507690,449.979584 
	C474.672089,450.099365 481.840149,449.999725 489.006561,449.999847 
	C498.820496,450.000031 498.443481,450.148804 501.093536,459.706055 
	C504.953857,473.627991 511.418945,486.459198 520.973694,497.324768 
	C536.983887,515.531433 556.887024,527.406921 580.873169,532.034485 
	C584.572083,532.748108 586.153564,534.427490 586.123657,538.683838 
	C585.897888,570.847717 586.000366,603.013916 586.000366,635.179382 
	C586.000366,636.637573 586.000366,638.095703 586.000366,640.003357 
	C582.795593,640.003357 579.997314,639.857971 577.219910,640.036255 
	C572.644104,640.330017 568.335205,645.405029 568.008606,650.647217 
	C567.734253,655.050842 571.947937,661.590088 575.535522,661.951294 
	C580.439636,662.445007 585.373718,662.962830 590.291077,662.928040 
	C597.221375,662.878967 604.187012,662.683472 611.067566,661.919861 
	C622.092651,660.696289 633.222656,659.684387 644.018250,657.280334 
	C665.946045,652.397461 686.692444,644.118347 705.641174,631.947998 
	C715.350342,625.711975 724.525146,618.619019 733.697144,611.594421 
	C735.396301,610.293030 736.519592,607.562866 736.879883,605.326416 
	C737.712158,600.160828 734.563843,596.678589 730.497559,594.282532 
	C726.295471,591.806641 721.937561,592.548401 718.119751,595.382751 
	C702.581787,606.918335 686.849182,618.108521 667.951904,625.550964 
M764.788208,567.746521 
	C766.534790,565.779541 768.779846,564.068420 769.943054,561.802002 
	C775.462219,551.048157 780.945984,540.260132 785.917664,529.247437 
	C788.870117,522.707520 790.279785,520.918762 796.227661,522.083496 
	C804.800232,523.762207 813.380737,525.581970 821.764648,528.008911 
	C850.403809,536.299316 877.144165,549.422546 904.354065,561.285706 
	C912.847107,564.988586 912.435120,565.742920 908.942444,573.378906 
	C908.068970,575.288635 907.296753,577.245544 906.393982,579.140808 
	C897.937805,596.893921 888.713806,614.236206 876.600891,629.796509 
	C866.559021,642.696228 855.910889,655.122498 845.689575,667.885193 
	C842.503601,671.863464 840.194824,671.210144 837.126038,667.730225 
	C829.827637,659.453796 822.385193,651.294189 814.748108,643.329773 
	C808.134277,636.432556 807.110046,636.000244 814.049500,629.387451 
	C815.448608,628.054321 816.522583,626.369080 817.685852,624.801086 
	C823.795593,616.565247 830.041321,608.422119 835.861816,599.986023 
	C837.143860,598.127869 837.471436,595.154175 837.233643,592.795532 
	C836.669373,587.199219 832.566528,584.332520 827.612549,583.084778 
	C821.872925,581.639099 818.341492,585.554138 815.200256,589.490112 
	C806.675903,600.171509 798.857788,611.486877 789.646179,621.529541 
	C780.637146,631.351257 770.415283,640.093628 760.433167,648.981079 
	C748.253113,659.825500 734.540771,668.583801 720.025391,675.869995 
	C707.593445,682.110535 694.670349,687.377747 681.926880,692.990173 
	C676.936707,695.187927 674.509094,699.115356 675.100342,704.263184 
	C676.062988,712.643372 677.244690,721.044434 679.087219,729.267883 
	C682.797180,745.825684 686.916870,762.294434 691.090393,778.743408 
	C692.132019,782.848816 694.700928,785.792664 699.659241,785.001160 
	C703.820251,784.336792 708.103027,784.105652 712.125977,782.959656 
	C739.581543,775.138916 764.470276,761.585205 789.316711,747.976929 
	C793.168884,745.867126 796.106384,739.040649 794.545898,735.169556 
	C790.715088,725.666260 784.414978,723.066956 773.887817,729.603699 
	C756.228027,740.569458 737.540405,749.366882 718.028748,756.431641 
	C711.909058,758.647522 710.468872,757.651917 709.003662,751.336365 
	C706.367737,739.974060 703.710571,728.616638 701.092529,717.250183 
	C699.945862,712.271729 701.581116,710.135559 706.034119,707.955444 
	C719.997070,701.119568 734.355713,694.838806 747.489014,686.628174 
	C762.536438,677.220764 776.435791,665.976990 790.781372,655.569153 
	C796.339539,661.064941 802.218811,666.501587 807.661011,672.345276 
	C816.395874,681.724426 824.715454,691.490906 833.474731,700.846252 
	C836.734863,704.328186 843.735291,704.083435 846.806152,700.662903 
	C860.207397,685.735657 873.981934,671.105164 886.695618,655.607849 
	C907.703796,630.000122 923.075317,600.850952 935.637817,570.435059 
	C946.384094,544.416443 954.677612,517.434265 957.980896,489.260986 
	C959.620972,475.272583 961.626831,461.225891 961.774170,447.187775 
	C961.987610,426.848694 961.103455,406.466003 959.825256,386.156189 
	C959.133545,375.165802 956.832336,364.256226 954.904846,353.372559 
	C953.903076,347.715912 947.716553,344.118713 941.653748,345.012939 
	C936.129578,345.827728 932.611877,349.854797 933.095276,356.029083 
	C933.718933,363.994293 935.220886,371.886993 935.997314,379.844818 
	C937.462769,394.865997 938.980896,409.893616 939.869751,424.954437 
	C940.295532,432.168243 939.572327,439.484375 938.949829,446.718048 
	C937.799133,460.088654 937.205200,473.591644 934.788940,486.747375 
	C931.784058,503.108307 927.285889,519.203430 923.176392,535.348145 
	C921.903625,540.348328 919.474792,541.224792 914.758423,539.290710 
	C893.836792,530.711182 873.007751,521.898804 851.984680,513.576050 
	C829.145203,504.534119 805.626343,498.442871 780.773193,498.977905 
	C773.785034,499.128387 770.216125,500.900696 768.270447,507.449982 
	C763.766846,522.609131 756.869263,536.624512 749.307617,550.410950 
	C745.755188,556.887756 746.995300,561.626587 752.650330,566.106873 
	C756.089905,568.831909 760.013245,568.795654 764.788208,567.746521 
M352.463928,615.032959 
	C355.676514,612.827454 358.748810,610.372070 362.132812,608.471802 
	C367.977814,605.189575 369.197784,605.824524 373.465637,610.890015 
	C382.125366,621.168152 390.957550,631.305908 399.915192,641.325806 
	C403.445892,645.275208 407.501617,648.755188 411.320953,652.451599 
	C410.454590,654.027893 409.919495,655.209290 409.205200,656.269958 
	C398.141602,672.698914 387.012360,689.083801 375.991882,705.541565 
	C370.793793,713.304321 369.141266,720.526978 378.002655,727.481628 
	C381.319550,730.084717 384.646484,732.711182 388.188507,734.984680 
	C400.177185,742.679993 411.887695,750.925049 424.414337,757.634766 
	C438.351776,765.100281 452.987000,771.296021 467.490387,777.652283 
	C472.003357,779.630249 477.342438,776.751770 479.967468,772.107483 
	C482.216888,768.127747 481.609161,761.110229 477.969391,758.685486 
	C473.719360,755.854187 468.820496,754.007141 464.243439,751.654602 
	C451.714722,745.215332 439.065186,738.991211 426.746002,732.171570 
	C419.684692,728.262512 412.991547,723.607910 406.471375,718.827026 
	C401.135742,714.914673 401.009369,713.362732 404.307159,708.331421 
	C414.062286,693.448853 423.742188,678.511963 433.798523,663.834106 
	C439.129669,656.052979 437.768005,649.864075 430.003296,643.861755 
	C424.374420,639.510498 418.532288,634.962036 414.312347,629.352600 
	C403.012787,614.332520 392.617462,598.635254 381.675629,583.340942 
	C378.742767,579.241394 374.900269,575.534973 369.247223,577.114014 
	C364.676453,578.390747 359.982635,580.054504 356.047424,582.624512 
	C343.975952,590.508118 332.260071,598.934814 320.371338,607.099976 
	C314.768768,610.947754 312.382568,610.876648 310.080078,606.025391 
	C301.696289,588.360962 292.974182,570.816040 285.597870,552.729187 
	C280.744202,540.828003 277.934723,528.087891 274.301758,515.696411 
	C272.432800,509.321747 266.842529,507.300079 261.295776,508.082397 
	C256.200043,508.801086 252.308975,513.337402 253.170929,518.992371 
	C254.533386,527.931091 256.645172,536.800537 259.069061,545.524475 
	C267.652100,576.415955 280.769775,605.255127 298.962860,631.720825 
	C302.448029,636.790710 305.982391,642.200317 313.377441,639.873413 
	C316.690063,638.830933 319.708649,636.687866 322.683990,634.770142 
	C332.495270,628.446228 342.225830,621.997009 352.463928,615.032959 
M469.924988,136.673203 
	C475.506866,156.568420 481.736572,176.311493 486.457458,196.408966 
	C489.981628,211.411758 492.439209,226.796463 493.759399,242.149750 
	C495.163300,258.475861 494.702057,274.964752 494.982910,291.383850 
	C495.091187,297.714172 494.993134,304.047943 495.002411,310.380127 
	C495.013885,318.198273 498.239075,321.933136 505.015656,321.999512 
	C513.502747,322.082642 518.037781,318.118408 517.972046,310.246429 
	C517.692322,276.734619 520.062927,243.071686 512.964844,209.918060 
	C509.545319,193.946274 506.013519,177.985870 501.969360,162.164261 
	C498.372742,148.093643 494.129059,134.182266 489.917175,120.277496 
	C487.540192,112.430168 485.072266,104.558037 481.857849,97.033478 
	C479.331329,91.119293 474.741241,89.534393 468.621979,91.909561 
	C459.298553,95.528435 449.944763,99.184738 440.980896,103.592010 
	C417.072662,115.347038 394.665253,129.524139 374.008667,146.422943 
	C368.929230,150.578323 367.428802,156.415756 370.710358,161.174591 
	C374.889832,167.235565 381.838074,168.971924 387.346497,165.057037 
	C393.955475,160.359955 400.370667,155.391235 406.911407,150.596893 
	C423.221130,138.641861 440.983765,129.183121 459.134094,120.415466 
	C461.634705,119.207504 463.928894,119.668297 464.959137,122.737267 
	C466.445984,127.166573 467.940125,131.593445 469.924988,136.673203 
M431.992645,541.809570 
	C432.105927,551.971558 431.367462,562.202087 434.938751,572.045349 
	C437.045807,577.852722 443.431458,581.444763 449.253082,579.881104 
	C455.119995,578.305420 459.160583,571.731201 457.941803,565.819092 
	C457.253662,562.480896 456.266785,559.148010 456.070343,555.774597 
	C455.245239,541.604736 454.388672,527.426270 454.098328,513.239563 
	C453.908020,503.940918 447.525391,498.918488 439.688446,498.988312 
	C433.025940,499.047668 426.362427,499.000122 419.699371,499.000122 
	C401.375946,499.000061 383.051514,499.097870 364.730042,498.909271 
	C361.462463,498.875641 356.931549,499.511078 356.111450,494.744354 
	C354.181946,483.529663 351.628967,472.277618 351.243652,460.975372 
	C350.650940,443.590912 350.700104,426.063721 352.278778,408.761505 
	C353.734253,392.809753 357.653046,377.089355 360.275116,361.232086 
	C360.822784,357.919983 361.623596,353.824463 360.223450,351.203400 
	C357.959442,346.965271 353.532867,344.319031 348.218048,345.053284 
	C343.573700,345.694946 340.510712,348.271027 338.907166,352.952148 
	C331.880920,373.463715 329.131165,394.766663 328.208923,416.203522 
	C327.497253,432.745239 328.006714,449.415283 329.193909,465.940613 
	C330.278015,481.031097 332.738708,496.046326 335.159180,511.003052 
	C335.906097,515.618408 337.847534,520.615112 343.414734,521.910156 
	C346.723297,522.679810 350.213806,522.941528 353.624329,522.954468 
	C376.445007,523.041138 399.266144,522.996094 422.087158,523.001404 
	C429.264832,523.003052 430.851013,524.712830 431.039520,532.082336 
	C431.114532,535.015808 431.626160,537.938110 431.992645,541.809570 
M509.063782,694.540527 
	C506.809814,692.780945 502.322815,692.800781 503.209015,688.465820 
	C504.761078,680.873779 507.122437,673.439331 508.508789,665.823120 
	C510.926544,652.540588 513.078674,639.200073 514.918213,625.825562 
	C516.035583,617.701843 515.643738,609.330505 517.195862,601.315552 
	C519.836731,587.679077 523.371094,574.209778 526.735718,560.721558 
	C528.667236,552.978699 525.747620,547.637451 517.846008,545.344421 
	C511.755798,543.576965 506.222626,546.976990 503.969360,553.775452 
	C497.847382,572.246033 495.037048,591.353088 493.010498,610.609131 
	C491.947998,620.704834 491.707001,630.951599 489.791168,640.878479 
	C486.543884,657.704041 481.925110,674.262146 478.545227,691.065857 
	C476.522919,701.120239 474.893829,706.708069 488.330933,711.613037 
	C500.753113,716.147461 513.390869,720.122314 526.040039,723.996155 
	C542.759949,729.116638 560.003296,731.777222 577.387817,732.849487 
	C589.839539,733.617493 602.383972,733.218628 614.869690,732.809326 
	C617.298706,732.729675 620.567566,730.780273 621.874756,728.702759 
	C627.708435,719.430725 622.592773,711.117920 611.255432,711.017029 
	C593.129395,710.855652 574.946899,710.933044 557.168884,706.916931 
	C541.266418,703.324585 525.536194,698.969604 509.063782,694.540527 
M725.002808,117.612793 
	C725.738708,116.040695 726.474670,114.468597 727.173584,112.975708 
	C731.630066,114.359848 735.572693,115.735580 739.598206,116.797203 
	C744.881653,118.190613 748.286072,116.569038 749.915222,111.452301 
	C751.251282,107.256027 751.856384,102.827011 752.935364,97.803291 
	C741.093750,93.690323 730.340820,89.747375 719.444763,86.250450 
	C713.090088,84.211021 707.562927,87.880356 705.997070,94.568787 
	C700.944824,116.149117 695.914307,137.734528 690.884155,159.320023 
	C686.922729,176.319626 682.816589,193.287460 679.056763,210.331635 
	C673.310120,236.382355 667.831604,262.492157 662.183105,288.564697 
	C660.683411,295.487061 662.274109,301.097137 667.442627,302.997925 
	C675.178833,305.843109 676.257263,306.725006 682.446228,299.960846 
	C683.679016,298.613495 684.515930,296.649170 684.915100,294.833008 
	C689.360657,274.607422 693.596191,254.335648 698.061829,234.114639 
	C704.306152,205.839188 710.614075,177.577148 717.069763,149.349396 
	C719.440796,138.981842 722.309998,128.728241 725.002808,117.612793 
M336.969696,324.463348 
	C341.954742,326.791992 346.825775,329.425842 351.963684,331.345337 
	C355.575928,332.694885 358.982147,335.571747 363.522614,333.220367 
	C367.548828,331.135284 370.653564,328.972687 371.076630,323.924896 
	C371.563995,318.110107 370.158173,313.583008 364.593475,310.935791 
	C358.745300,308.153748 352.937622,305.285492 347.065674,302.555023 
	C339.127991,298.863983 331.093353,295.378387 323.197235,291.601990 
	C314.750610,287.562347 306.416595,283.287201 298.054138,279.125153 
	C307.018677,259.739075 317.897369,242.142975 330.152283,225.390396 
	C334.688354,219.189468 333.723450,212.623734 327.122437,207.655746 
	C322.383179,204.088928 315.762634,205.742401 311.750732,211.638275 
	C304.721588,221.968262 297.016632,231.932892 290.969391,242.814499 
	C281.769104,259.369751 273.604309,276.509918 265.307465,293.551453 
	C263.089417,298.107178 264.962891,304.265289 268.265045,306.752136 
	C272.964386,310.291199 280.769104,310.915497 284.301453,306.886993 
	C288.513428,302.083374 291.974823,303.582581 296.601440,305.814911 
	C309.716400,312.142914 323.056183,318.005066 336.969696,324.463348 
M567.427246,67.000275 
	C558.840271,68.049164 550.244995,69.037529 541.676086,70.217468 
	C540.500244,70.379379 539.347717,71.365860 538.369263,72.190079 
	C534.669434,75.306763 533.720032,81.269547 536.041138,86.166405 
	C538.615845,91.598228 542.288818,92.797943 549.671021,92.043930 
	C565.159058,90.462006 580.671570,88.879852 596.213989,88.155128 
	C606.588379,87.671371 617.040100,88.510612 627.441162,89.060547 
	C633.305237,89.370598 639.172058,90.073486 644.973877,90.999481 
	C651.690491,92.071487 658.428284,88.255402 659.940918,82.086517 
	C661.252136,76.738739 657.717834,70.357758 652.253784,69.230980 
	C646.851929,68.117043 641.317322,67.252090 635.816467,67.085609 
	C617.423157,66.528969 599.019714,66.262222 580.618225,66.055977 
	C576.534058,66.010201 572.442139,66.666344 567.427246,67.000275 
M612.484863,803.000000 
	C622.154053,802.327148 631.842163,801.848206 641.485718,800.911377 
	C647.655334,800.312073 651.466248,794.881470 651.000183,788.287476 
	C650.644470,783.254883 645.504822,778.877563 639.778259,779.041443 
	C635.350525,779.168091 630.938477,779.822266 626.510437,779.967712 
	C613.771973,780.386353 601.026611,780.985291 588.288696,780.887939 
	C579.773193,780.822815 571.261841,779.738220 562.756226,779.020142 
	C555.576782,778.414001 548.420105,777.449341 541.230957,777.079346 
	C536.226379,776.821777 531.354919,781.633972 531.002258,786.449158 
	C530.473022,793.677490 532.980835,798.101624 539.042358,798.915039 
	C551.172729,800.542786 563.342346,802.176208 575.548767,802.855225 
	C587.494629,803.519714 599.506409,803.000000 612.484863,803.000000 
M243.999466,380.343384 
	C243.317337,387.850189 242.398193,395.344513 242.002563,402.866394 
	C241.186966,418.372223 240.365265,433.888672 240.143539,449.409271 
	C240.057648,455.420959 246.826385,460.470581 252.675293,459.997131 
	C258.900421,459.493256 262.806580,454.744629 263.036255,448.027710 
	C263.589478,431.850037 263.900146,415.645691 265.137482,399.515717 
	C266.095215,387.030884 268.086304,374.607330 270.040253,362.223175 
	C271.365845,353.821747 268.092438,347.802765 260.401337,346.089020 
	C255.482544,344.993073 248.742401,349.809875 247.434006,356.229309 
	C245.875427,363.876099 245.109695,371.684479 243.999466,380.343384 
M588.562378,155.999268 
	C601.792419,156.332672 615.021179,156.731873 628.252930,156.973221 
	C635.448853,157.104477 640.772522,149.980865 638.585327,143.122559 
	C636.004028,135.028519 634.738525,134.482056 624.049011,134.226395 
	C604.680298,133.763184 585.271240,134.457382 565.896973,135.161835 
	C561.539307,135.320282 555.979431,134.926666 553.836060,140.642029 
	C551.935974,145.708588 552.515808,150.666550 555.644958,155.061203 
	C558.378052,158.899612 562.687012,158.190582 566.577454,157.923019 
	C573.590332,157.440720 580.582520,156.657104 588.562378,155.999268 
M401.003723,231.496735 
	C394.459412,239.041870 387.581970,246.331528 381.514862,254.242615 
	C378.589600,258.056946 374.803650,261.990509 376.858734,268.138977 
	C378.635590,273.455109 382.288330,276.725403 387.027527,277.689270 
	C391.054474,278.508209 394.560364,275.888397 397.495331,272.262787 
	C405.842926,261.950775 414.660248,252.011597 423.483673,242.095596 
	C427.350647,237.749786 431.829926,233.952774 435.763824,229.661514 
	C440.491699,224.504211 440.094025,217.448807 435.127075,212.619827 
	C430.544464,208.164490 423.974762,208.553253 418.876740,213.624680 
	C413.072113,219.399002 407.297424,225.203430 401.003723,231.496735 
M563.191345,204.308975 
	C557.538269,207.677277 555.387756,212.705872 557.139221,218.461121 
	C558.457642,222.793304 563.563782,226.121460 569.157654,225.968277 
	C576.750977,225.760361 584.335632,225.155563 591.928833,225.041702 
	C602.918945,224.876892 613.913696,225.057144 624.905640,224.973450 
	C630.039246,224.934372 634.335876,221.077408 634.989563,216.240250 
	C635.867981,209.739624 633.219543,204.419464 628.124939,203.144302 
	C625.305054,202.438492 622.330261,202.073486 619.421143,202.049484 
	C605.931213,201.938263 592.436279,201.820465 578.950989,202.093521 
	C573.943298,202.194916 568.957092,203.357788 563.191345,204.308975 
z"/>
<path fill="#F1B434" opacity="1.000000" stroke="none" 
	d="
M668.263062,625.309387 
	C686.849182,618.108521 702.581787,606.918335 718.119751,595.382751 
	C721.937561,592.548401 726.295471,591.806641 730.497559,594.282532 
	C734.563843,596.678589 737.712158,600.160828 736.879883,605.326416 
	C736.519592,607.562866 735.396301,610.293030 733.697144,611.594421 
	C724.525146,618.619019 715.350342,625.711975 705.641174,631.947998 
	C686.692444,644.118347 665.946045,652.397461 644.018250,657.280334 
	C633.222656,659.684387 622.092651,660.696289 611.067566,661.919861 
	C604.187012,662.683472 597.221375,662.878967 590.291077,662.928040 
	C585.373718,662.962830 580.439636,662.445007 575.535522,661.951294 
	C571.947937,661.590088 567.734253,655.050842 568.008606,650.647217 
	C568.335205,645.405029 572.644104,640.330017 577.219910,640.036255 
	C579.997314,639.857971 582.795593,640.003357 586.000366,640.003357 
	C586.000366,638.095703 586.000366,636.637573 586.000366,635.179382 
	C586.000366,603.013916 585.897888,570.847717 586.123657,538.683838 
	C586.153564,534.427490 584.572083,532.748108 580.873169,532.034485 
	C556.887024,527.406921 536.983887,515.531433 520.973694,497.324768 
	C511.418945,486.459198 504.953857,473.627991 501.093536,459.706055 
	C498.443481,450.148804 498.820496,450.000031 489.006561,449.999847 
	C481.840149,449.999725 474.672089,450.099365 467.507690,449.979584 
	C451.410919,449.710571 435.316589,449.297363 419.220001,449.015411 
	C412.051941,448.889862 408.461395,444.407837 408.176910,437.828827 
	C406.888123,408.022400 411.765411,379.212616 424.059143,351.866364 
	C426.653503,346.095428 432.942871,344.034393 439.041229,346.551758 
	C443.974854,348.588287 446.283142,353.851288 444.640839,359.766083 
	C441.657379,370.511108 437.994354,381.104767 435.683319,391.988464 
	C433.425995,402.619263 432.503021,413.533417 430.760681,425.994232 
	C451.603516,425.994232 470.813416,426.206818 490.014313,425.883789 
	C497.138184,425.763885 498.040131,424.491577 499.896393,413.979431 
	C504.937927,385.429352 521.404846,364.828003 544.775024,349.098419 
	C555.954651,341.573792 568.626526,337.478821 581.807190,335.075165 
	C585.017822,334.489655 586.209167,333.275055 586.072693,329.954529 
	C585.819763,323.798462 585.894958,317.622437 586.022278,311.458618 
	C586.282471,298.859131 586.615540,286.260529 587.024109,273.664978 
	C587.217896,267.691925 589.827393,263.833160 595.236206,262.373047 
	C599.931763,261.105499 604.412903,262.093903 607.626282,266.165619 
	C608.368774,267.106445 608.898010,268.471985 608.945190,269.665009 
	C609.370239,280.419922 609.791992,291.177917 609.963684,301.939026 
	C610.129883,312.350739 609.999695,322.767181 609.999695,333.258789 
	C618.201843,335.346924 625.368835,337.135040 632.515991,338.999329 
	C644.336487,342.082672 654.450928,348.442291 664.109802,355.633820 
	C666.209900,357.197418 668.062439,359.101471 670.203003,360.600281 
	C672.368835,362.116760 674.130737,362.222168 676.631531,360.072418 
	C687.161560,351.020447 698.129517,342.480347 708.806580,333.595978 
	C716.379639,327.294403 724.435303,321.359406 730.944031,314.071594 
	C734.913757,309.626648 736.606750,303.023560 738.878357,297.216156 
	C742.225769,288.658722 744.592896,279.675568 748.443420,271.367798 
	C753.413208,260.644867 759.395569,250.388214 765.020813,239.973434 
	C767.536255,235.316238 768.862061,231.450867 764.446594,226.477768 
	C758.520020,219.802826 759.555603,212.711639 766.006226,206.526611 
	C777.651245,195.360962 785.228882,181.252808 793.901489,167.963974 
	C798.663574,160.667160 802.719116,152.898712 806.907654,145.241425 
	C810.179871,139.259369 815.561829,137.061646 821.135498,140.802429 
	C827.748962,145.241150 834.109619,150.200287 839.950195,155.613281 
	C848.805908,163.820602 857.523743,172.250732 865.575684,181.235382 
	C881.366943,198.855804 895.813660,217.567627 907.951843,237.937164 
	C914.510925,248.944168 920.972778,260.029175 926.906799,271.377899 
	C929.085815,275.545258 930.497620,280.542206 930.665466,285.217957 
	C930.851135,290.389465 925.359558,291.697235 921.700378,293.601990 
	C903.818054,302.910431 885.780579,311.920898 867.794678,321.030365 
	C862.069702,323.929932 861.993164,324.751190 863.573486,331.180969 
	C868.176453,349.908936 873.129211,368.585205 876.720886,387.514008 
	C878.732971,398.117920 878.300171,409.183228 879.009888,420.037933 
	C879.277649,424.132965 880.129028,428.246155 879.906189,432.306702 
	C879.140869,446.249054 878.560913,460.240845 876.801514,474.072754 
	C875.924377,480.968079 870.819946,483.051514 862.777405,481.990509 
	C857.881409,481.344604 854.789978,477.134247 855.044800,470.645905 
	C855.562988,457.447693 856.872437,444.259705 856.880981,431.066895 
	C856.895996,407.922607 854.883484,384.884338 848.150330,362.624603 
	C843.239380,346.388885 838.245056,330.050507 831.466614,314.554626 
	C827.273499,304.969086 836.289429,292.718445 845.084167,295.075043 
	C847.473328,295.715210 849.572327,297.374054 851.894836,298.350403 
	C853.423706,298.993134 855.551941,300.115417 856.666321,299.550964 
	C871.976990,291.796173 887.157898,283.785156 902.860657,275.581055 
	C882.609192,235.760071 856.106506,202.038330 822.584900,171.978821 
	C817.997742,178.266953 813.585083,184.190201 809.309570,190.210815 
	C804.697205,196.705734 800.222839,203.298599 795.667603,209.834305 
	C794.015137,212.205276 793.572876,213.975632 795.938110,216.676254 
	C799.965881,221.275116 804.066406,226.350998 800.987976,233.293350 
	C800.278015,234.894409 799.739807,236.971832 798.453430,237.852539 
	C789.755920,243.807068 785.039795,252.817627 779.919312,261.491821 
	C772.142151,274.666382 765.620239,288.420105 761.955078,303.358612 
	C761.603333,304.792267 761.804993,306.818176 762.595093,308.007660 
	C775.964478,328.135376 787.286682,349.309357 793.169617,372.845520 
	C796.353394,385.582886 798.129517,398.712830 799.869385,411.755219 
	C800.914429,419.588654 800.811523,427.591858 800.959595,435.523712 
	C801.111938,443.683411 795.679016,448.915192 787.566406,449.014679 
	C763.803528,449.306091 740.041992,449.717346 716.278809,449.977722 
	C704.704224,450.104553 704.512207,449.940308 700.953552,461.352844 
	C694.931458,480.665161 683.891907,496.741486 668.663086,509.645874 
	C653.542908,522.458252 635.981079,530.679932 616.025513,532.974060 
	C610.276123,533.635071 610.304199,538.113403 610.098083,541.983826 
	C609.744080,548.631470 610.000000,555.311462 609.999939,561.977905 
	C609.999878,583.977112 609.983398,605.976318 610.030457,627.975403 
	C610.034241,629.752441 610.778015,631.549500 610.657104,633.301331 
	C610.201721,639.895447 614.748840,639.518005 618.805420,638.925842 
	C634.253052,636.670959 649.442688,633.325439 663.843323,627.041077 
	C665.175842,626.459656 666.580688,626.043762 668.263062,625.309387 
M638.913086,501.583405 
	C648.393555,495.438873 657.586121,489.119843 664.701843,479.968353 
	C675.143250,466.539520 681.270203,451.491608 681.807068,434.682922 
	C682.238403,421.177124 677.703857,408.490509 671.467407,396.093323 
	C669.965820,397.240112 668.497864,398.419006 666.971313,399.516266 
	C662.219849,402.931396 657.700500,406.777344 652.609070,409.580872 
	C647.605469,412.336090 643.023621,410.671661 639.529846,406.077728 
	C634.811523,399.873627 636.649170,392.933075 644.346863,387.280792 
	C647.809387,384.738342 651.088806,381.946503 654.951782,378.869110 
	C652.392578,376.549835 650.564941,374.845764 648.677429,373.210907 
	C648.076172,372.690094 647.282898,372.398224 646.632507,371.925842 
	C629.566284,359.529510 610.534424,355.721252 589.732056,357.879669 
	C572.123535,359.706696 557.291077,366.913727 544.690063,378.904236 
	C533.331360,389.712646 526.131409,402.782806 522.689453,418.342377 
	C518.973572,435.140381 521.188660,451.027649 528.672058,465.884918 
	C537.295959,483.006409 550.762268,495.762421 568.431763,503.816223 
	C578.992004,508.629578 590.257812,510.905212 601.596558,510.752106 
	C614.263733,510.581055 626.719299,507.764496 638.913086,501.583405 
M699.072693,401.365997 
	C701.032288,408.190887 702.924316,415.036560 705.015381,421.820923 
	C705.380005,423.003906 706.449890,424.665649 707.422546,424.841400 
	C711.117371,425.509003 714.904114,425.927246 718.659790,425.953125 
	C734.641724,426.063416 750.625244,426.056824 766.607178,425.948303 
	C769.518677,425.928558 772.528198,425.564789 775.290161,424.707764 
	C776.627319,424.292816 778.518005,422.271606 778.412048,421.141479 
	C777.682434,413.366302 776.747437,405.589386 775.393982,397.898254 
	C772.720642,382.707184 768.177063,368.006927 761.842041,353.973999 
	C758.282166,346.088501 755.128662,337.720673 747.934387,331.609802 
	C728.298340,348.046753 708.914368,364.272705 689.634277,380.411621 
	C691.669006,384.348236 693.419739,387.471405 694.919250,390.710846 
	C696.411377,393.934662 697.651184,397.275238 699.072693,401.365997 
z"/>
<path fill="#F1C400" opacity="1.000000" stroke="none" 
	d="
M764.419189,567.864258 
	C760.013245,568.795654 756.089905,568.831909 752.650330,566.106873 
	C746.995300,561.626587 745.755188,556.887756 749.307617,550.410950 
	C756.869263,536.624512 763.766846,522.609131 768.270447,507.449982 
	C770.216125,500.900696 773.785034,499.128387 780.773193,498.977905 
	C805.626343,498.442871 829.145203,504.534119 851.984680,513.576050 
	C873.007751,521.898804 893.836792,530.711182 914.758423,539.290710 
	C919.474792,541.224792 921.903625,540.348328 923.176392,535.348145 
	C927.285889,519.203430 931.784058,503.108307 934.788940,486.747375 
	C937.205200,473.591644 937.799133,460.088654 938.949829,446.718048 
	C939.572327,439.484375 940.295532,432.168243 939.869751,424.954437 
	C938.980896,409.893616 937.462769,394.865997 935.997314,379.844818 
	C935.220886,371.886993 933.718933,363.994293 933.095276,356.029083 
	C932.611877,349.854797 936.129578,345.827728 941.653748,345.012939 
	C947.716553,344.118713 953.903076,347.715912 954.904846,353.372559 
	C956.832336,364.256226 959.133545,375.165802 959.825256,386.156189 
	C961.103455,406.466003 961.987610,426.848694 961.774170,447.187775 
	C961.626831,461.225891 959.620972,475.272583 957.980896,489.260986 
	C954.677612,517.434265 946.384094,544.416443 935.637817,570.435059 
	C923.075317,600.850952 907.703796,630.000122 886.695618,655.607849 
	C873.981934,671.105164 860.207397,685.735657 846.806152,700.662903 
	C843.735291,704.083435 836.734863,704.328186 833.474731,700.846252 
	C824.715454,691.490906 816.395874,681.724426 807.661011,672.345276 
	C802.218811,666.501587 796.339539,661.064941 790.781372,655.569153 
	C776.435791,665.976990 762.536438,677.220764 747.489014,686.628174 
	C734.355713,694.838806 719.997070,701.119568 706.034119,707.955444 
	C701.581116,710.135559 699.945862,712.271729 701.092529,717.250183 
	C703.710571,728.616638 706.367737,739.974060 709.003662,751.336365 
	C710.468872,757.651917 711.909058,758.647522 718.028748,756.431641 
	C737.540405,749.366882 756.228027,740.569458 773.887817,729.603699 
	C784.414978,723.066956 790.715088,725.666260 794.545898,735.169556 
	C796.106384,739.040649 793.168884,745.867126 789.316711,747.976929 
	C764.470276,761.585205 739.581543,775.138916 712.125977,782.959656 
	C708.103027,784.105652 703.820251,784.336792 699.659241,785.001160 
	C694.700928,785.792664 692.132019,782.848816 691.090393,778.743408 
	C686.916870,762.294434 682.797180,745.825684 679.087219,729.267883 
	C677.244690,721.044434 676.062988,712.643372 675.100342,704.263184 
	C674.509094,699.115356 676.936707,695.187927 681.926880,692.990173 
	C694.670349,687.377747 707.593445,682.110535 720.025391,675.869995 
	C734.540771,668.583801 748.253113,659.825500 760.433167,648.981079 
	C770.415283,640.093628 780.637146,631.351257 789.646179,621.529541 
	C798.857788,611.486877 806.675903,600.171509 815.200256,589.490112 
	C818.341492,585.554138 821.872925,581.639099 827.612549,583.084778 
	C832.566528,584.332520 836.669373,587.199219 837.233643,592.795532 
	C837.471436,595.154175 837.143860,598.127869 835.861816,599.986023 
	C830.041321,608.422119 823.795593,616.565247 817.685852,624.801086 
	C816.522583,626.369080 815.448608,628.054321 814.049500,629.387451 
	C807.110046,636.000244 808.134277,636.432556 814.748108,643.329773 
	C822.385193,651.294189 829.827637,659.453796 837.126038,667.730225 
	C840.194824,671.210144 842.503601,671.863464 845.689575,667.885193 
	C855.910889,655.122498 866.559021,642.696228 876.600891,629.796509 
	C888.713806,614.236206 897.937805,596.893921 906.393982,579.140808 
	C907.296753,577.245544 908.068970,575.288635 908.942444,573.378906 
	C912.435120,565.742920 912.847107,564.988586 904.354065,561.285706 
	C877.144165,549.422546 850.403809,536.299316 821.764648,528.008911 
	C813.380737,525.581970 804.800232,523.762207 796.227661,522.083496 
	C790.279785,520.918762 788.870117,522.707520 785.917664,529.247437 
	C780.945984,540.260132 775.462219,551.048157 769.943054,561.802002 
	C768.779846,564.068420 766.534790,565.779541 764.419189,567.864258 
z"/>
<path fill="#F1C400" opacity="1.000000" stroke="none" 
	d="
M352.225647,615.314453 
	C342.225830,621.997009 332.495270,628.446228 322.683990,634.770142 
	C319.708649,636.687866 316.690063,638.830933 313.377441,639.873413 
	C305.982391,642.200317 302.448029,636.790710 298.962860,631.720825 
	C280.769775,605.255127 267.652100,576.415955 259.069061,545.524475 
	C256.645172,536.800537 254.533386,527.931091 253.170929,518.992371 
	C252.308975,513.337402 256.200043,508.801086 261.295776,508.082397 
	C266.842529,507.300079 272.432800,509.321747 274.301758,515.696411 
	C277.934723,528.087891 280.744202,540.828003 285.597870,552.729187 
	C292.974182,570.816040 301.696289,588.360962 310.080078,606.025391 
	C312.382568,610.876648 314.768768,610.947754 320.371338,607.099976 
	C332.260071,598.934814 343.975952,590.508118 356.047424,582.624512 
	C359.982635,580.054504 364.676453,578.390747 369.247223,577.114014 
	C374.900269,575.534973 378.742767,579.241394 381.675629,583.340942 
	C392.617462,598.635254 403.012787,614.332520 414.312347,629.352600 
	C418.532288,634.962036 424.374420,639.510498 430.003296,643.861755 
	C437.768005,649.864075 439.129669,656.052979 433.798523,663.834106 
	C423.742188,678.511963 414.062286,693.448853 404.307159,708.331421 
	C401.009369,713.362732 401.135742,714.914673 406.471375,718.827026 
	C412.991547,723.607910 419.684692,728.262512 426.746002,732.171570 
	C439.065186,738.991211 451.714722,745.215332 464.243439,751.654602 
	C468.820496,754.007141 473.719360,755.854187 477.969391,758.685486 
	C481.609161,761.110229 482.216888,768.127747 479.967468,772.107483 
	C477.342438,776.751770 472.003357,779.630249 467.490387,777.652283 
	C452.987000,771.296021 438.351776,765.100281 424.414337,757.634766 
	C411.887695,750.925049 400.177185,742.679993 388.188507,734.984680 
	C384.646484,732.711182 381.319550,730.084717 378.002655,727.481628 
	C369.141266,720.526978 370.793793,713.304321 375.991882,705.541565 
	C387.012360,689.083801 398.141602,672.698914 409.205200,656.269958 
	C409.919495,655.209290 410.454590,654.027893 411.320953,652.451599 
	C407.501617,648.755188 403.445892,645.275208 399.915192,641.325806 
	C390.957550,631.305908 382.125366,621.168152 373.465637,610.890015 
	C369.197784,605.824524 367.977814,605.189575 362.132812,608.471802 
	C358.748810,610.372070 355.676514,612.827454 352.225647,615.314453 
z"/>
<path fill="#F1C400" opacity="1.000000" stroke="none" 
	d="
M469.678040,136.347275 
	C467.940125,131.593445 466.445984,127.166573 464.959137,122.737267 
	C463.928894,119.668297 461.634705,119.207504 459.134094,120.415466 
	C440.983765,129.183121 423.221130,138.641861 406.911407,150.596893 
	C400.370667,155.391235 393.955475,160.359955 387.346497,165.057037 
	C381.838074,168.971924 374.889832,167.235565 370.710358,161.174591 
	C367.428802,156.415756 368.929230,150.578323 374.008667,146.422943 
	C394.665253,129.524139 417.072662,115.347038 440.980896,103.592010 
	C449.944763,99.184738 459.298553,95.528435 468.621979,91.909561 
	C474.741241,89.534393 479.331329,91.119293 481.857849,97.033478 
	C485.072266,104.558037 487.540192,112.430168 489.917175,120.277496 
	C494.129059,134.182266 498.372742,148.093643 501.969360,162.164261 
	C506.013519,177.985870 509.545319,193.946274 512.964844,209.918060 
	C520.062927,243.071686 517.692322,276.734619 517.972046,310.246429 
	C518.037781,318.118408 513.502747,322.082642 505.015656,321.999512 
	C498.239075,321.933136 495.013885,318.198273 495.002411,310.380127 
	C494.993134,304.047943 495.091187,297.714172 494.982910,291.383850 
	C494.702057,274.964752 495.163300,258.475861 493.759399,242.149750 
	C492.439209,226.796463 489.981628,211.411758 486.457458,196.408966 
	C481.736572,176.311493 475.506866,156.568420 469.678040,136.347275 
z"/>
<path fill="#F1C400" opacity="1.000000" stroke="none" 
	d="
M431.965820,541.337524 
	C431.626160,537.938110 431.114532,535.015808 431.039520,532.082336 
	C430.851013,524.712830 429.264832,523.003052 422.087158,523.001404 
	C399.266144,522.996094 376.445007,523.041138 353.624329,522.954468 
	C350.213806,522.941528 346.723297,522.679810 343.414734,521.910156 
	C337.847534,520.615112 335.906097,515.618408 335.159180,511.003052 
	C332.738708,496.046326 330.278015,481.031097 329.193909,465.940613 
	C328.006714,449.415283 327.497253,432.745239 328.208923,416.203522 
	C329.131165,394.766663 331.880920,373.463715 338.907166,352.952148 
	C340.510712,348.271027 343.573700,345.694946 348.218048,345.053284 
	C353.532867,344.319031 357.959442,346.965271 360.223450,351.203400 
	C361.623596,353.824463 360.822784,357.919983 360.275116,361.232086 
	C357.653046,377.089355 353.734253,392.809753 352.278778,408.761505 
	C350.700104,426.063721 350.650940,443.590912 351.243652,460.975372 
	C351.628967,472.277618 354.181946,483.529663 356.111450,494.744354 
	C356.931549,499.511078 361.462463,498.875641 364.730042,498.909271 
	C383.051514,499.097870 401.375946,499.000061 419.699371,499.000122 
	C426.362427,499.000122 433.025940,499.047668 439.688446,498.988312 
	C447.525391,498.918488 453.908020,503.940918 454.098328,513.239563 
	C454.388672,527.426270 455.245239,541.604736 456.070343,555.774597 
	C456.266785,559.148010 457.253662,562.480896 457.941803,565.819092 
	C459.160583,571.731201 455.119995,578.305420 449.253082,579.881104 
	C443.431458,581.444763 437.045807,577.852722 434.938751,572.045349 
	C431.367462,562.202087 432.105927,551.971558 431.965820,541.337524 
z"/>
<path fill="#F1C400" opacity="1.000000" stroke="none" 
	d="
M509.396912,694.745850 
	C525.536194,698.969604 541.266418,703.324585 557.168884,706.916931 
	C574.946899,710.933044 593.129395,710.855652 611.255432,711.017029 
	C622.592773,711.117920 627.708435,719.430725 621.874756,728.702759 
	C620.567566,730.780273 617.298706,732.729675 614.869690,732.809326 
	C602.383972,733.218628 589.839539,733.617493 577.387817,732.849487 
	C560.003296,731.777222 542.759949,729.116638 526.040039,723.996155 
	C513.390869,720.122314 500.753113,716.147461 488.330933,711.613037 
	C474.893829,706.708069 476.522919,701.120239 478.545227,691.065857 
	C481.925110,674.262146 486.543884,657.704041 489.791168,640.878479 
	C491.707001,630.951599 491.947998,620.704834 493.010498,610.609131 
	C495.037048,591.353088 497.847382,572.246033 503.969360,553.775452 
	C506.222626,546.976990 511.755798,543.576965 517.846008,545.344421 
	C525.747620,547.637451 528.667236,552.978699 526.735718,560.721558 
	C523.371094,574.209778 519.836731,587.679077 517.195862,601.315552 
	C515.643738,609.330505 516.035583,617.701843 514.918213,625.825562 
	C513.078674,639.200073 510.926544,652.540588 508.508789,665.823120 
	C507.122437,673.439331 504.761078,680.873779 503.209015,688.465820 
	C502.322815,692.800781 506.809814,692.780945 509.396912,694.745850 
z"/>
<path fill="#F1C400" opacity="1.000000" stroke="none" 
	d="
M724.977356,118.017723 
	C722.309998,128.728241 719.440796,138.981842 717.069763,149.349396 
	C710.614075,177.577148 704.306152,205.839188 698.061829,234.114639 
	C693.596191,254.335648 689.360657,274.607422 684.915100,294.833008 
	C684.515930,296.649170 683.679016,298.613495 682.446228,299.960846 
	C676.257263,306.725006 675.178833,305.843109 667.442627,302.997925 
	C662.274109,301.097137 660.683411,295.487061 662.183105,288.564697 
	C667.831604,262.492157 673.310120,236.382355 679.056763,210.331635 
	C682.816589,193.287460 686.922729,176.319626 690.884155,159.320023 
	C695.914307,137.734528 700.944824,116.149117 705.997070,94.568787 
	C707.562927,87.880356 713.090088,84.211021 719.444763,86.250450 
	C730.340820,89.747375 741.093750,93.690323 752.935364,97.803291 
	C751.856384,102.827011 751.251282,107.256027 749.915222,111.452301 
	C748.286072,116.569038 744.881653,118.190613 739.598206,116.797203 
	C735.572693,115.735580 731.630066,114.359848 727.173584,112.975708 
	C726.474670,114.468597 725.738708,116.040695 724.977356,118.017723 
z"/>
<path fill="#F1C400" opacity="1.000000" stroke="none" 
	d="
M336.638550,324.257019 
	C323.056183,318.005066 309.716400,312.142914 296.601440,305.814911 
	C291.974823,303.582581 288.513428,302.083374 284.301453,306.886993 
	C280.769104,310.915497 272.964386,310.291199 268.265045,306.752136 
	C264.962891,304.265289 263.089417,298.107178 265.307465,293.551453 
	C273.604309,276.509918 281.769104,259.369751 290.969391,242.814499 
	C297.016632,231.932892 304.721588,221.968262 311.750732,211.638275 
	C315.762634,205.742401 322.383179,204.088928 327.122437,207.655746 
	C333.723450,212.623734 334.688354,219.189468 330.152283,225.390396 
	C317.897369,242.142975 307.018677,259.739075 298.054138,279.125153 
	C306.416595,283.287201 314.750610,287.562347 323.197235,291.601990 
	C331.093353,295.378387 339.127991,298.863983 347.065674,302.555023 
	C352.937622,305.285492 358.745300,308.153748 364.593475,310.935791 
	C370.158173,313.583008 371.563995,318.110107 371.076630,323.924896 
	C370.653564,328.972687 367.548828,331.135284 363.522614,333.220367 
	C358.982147,335.571747 355.575928,332.694885 351.963684,331.345337 
	C346.825775,329.425842 341.954742,326.791992 336.638550,324.257019 
z"/>
<path fill="#F1C400" opacity="1.000000" stroke="none" 
	d="
M567.890503,66.999786 
	C572.442139,66.666344 576.534058,66.010201 580.618225,66.055977 
	C599.019714,66.262222 617.423157,66.528969 635.816467,67.085609 
	C641.317322,67.252090 646.851929,68.117043 652.253784,69.230980 
	C657.717834,70.357758 661.252136,76.738739 659.940918,82.086517 
	C658.428284,88.255402 651.690491,92.071487 644.973877,90.999481 
	C639.172058,90.073486 633.305237,89.370598 627.441162,89.060547 
	C617.040100,88.510612 606.588379,87.671371 596.213989,88.155128 
	C580.671570,88.879852 565.159058,90.462006 549.671021,92.043930 
	C542.288818,92.797943 538.615845,91.598228 536.041138,86.166405 
	C533.720032,81.269547 534.669434,75.306763 538.369263,72.190079 
	C539.347717,71.365860 540.500244,70.379379 541.676086,70.217468 
	C550.244995,69.037529 558.840271,68.049164 567.890503,66.999786 
z"/>
<path fill="#F1C400" opacity="1.000000" stroke="none" 
	d="
M611.987061,803.000000 
	C599.506409,803.000000 587.494629,803.519714 575.548767,802.855225 
	C563.342346,802.176208 551.172729,800.542786 539.042358,798.915039 
	C532.980835,798.101624 530.473022,793.677490 531.002258,786.449158 
	C531.354919,781.633972 536.226379,776.821777 541.230957,777.079346 
	C548.420105,777.449341 555.576782,778.414001 562.756226,779.020142 
	C571.261841,779.738220 579.773193,780.822815 588.288696,780.887939 
	C601.026611,780.985291 613.771973,780.386353 626.510437,779.967712 
	C630.938477,779.822266 635.350525,779.168091 639.778259,779.041443 
	C645.504822,778.877563 650.644470,783.254883 651.000183,788.287476 
	C651.466248,794.881470 647.655334,800.312073 641.485718,800.911377 
	C631.842163,801.848206 622.154053,802.327148 611.987061,803.000000 
z"/>
<path fill="#F1C400" opacity="1.000000" stroke="none" 
	d="
M243.999969,379.883118 
	C245.109695,371.684479 245.875427,363.876099 247.434006,356.229309 
	C248.742401,349.809875 255.482544,344.993073 260.401337,346.089020 
	C268.092438,347.802765 271.365845,353.821747 270.040253,362.223175 
	C268.086304,374.607330 266.095215,387.030884 265.137482,399.515717 
	C263.900146,415.645691 263.589478,431.850037 263.036255,448.027710 
	C262.806580,454.744629 258.900421,459.493256 252.675293,459.997131 
	C246.826385,460.470581 240.057648,455.420959 240.143539,449.409271 
	C240.365265,433.888672 241.186966,418.372223 242.002563,402.866394 
	C242.398193,395.344513 243.317337,387.850189 243.999969,379.883118 
z"/>
<path fill="#F1C400" opacity="1.000000" stroke="none" 
	d="
M588.072876,155.999298 
	C580.582520,156.657104 573.590332,157.440720 566.577454,157.923019 
	C562.687012,158.190582 558.378052,158.899612 555.644958,155.061203 
	C552.515808,150.666550 551.935974,145.708588 553.836060,140.642029 
	C555.979431,134.926666 561.539307,135.320282 565.896973,135.161835 
	C585.271240,134.457382 604.680298,133.763184 624.049011,134.226395 
	C634.738525,134.482056 636.004028,135.028519 638.585327,143.122559 
	C640.772522,149.980865 635.448853,157.104477 628.252930,156.973221 
	C615.021179,156.731873 601.792419,156.332672 588.072876,155.999298 
z"/>
<path fill="#F1C400" opacity="1.000000" stroke="none" 
	d="
M401.256714,231.245758 
	C407.297424,225.203430 413.072113,219.399002 418.876740,213.624680 
	C423.974762,208.553253 430.544464,208.164490 435.127075,212.619827 
	C440.094025,217.448807 440.491699,224.504211 435.763824,229.661514 
	C431.829926,233.952774 427.350647,237.749786 423.483673,242.095596 
	C414.660248,252.011597 405.842926,261.950775 397.495331,272.262787 
	C394.560364,275.888397 391.054474,278.508209 387.027527,277.689270 
	C382.288330,276.725403 378.635590,273.455109 376.858734,268.138977 
	C374.803650,261.990509 378.589600,258.056946 381.514862,254.242615 
	C387.581970,246.331528 394.459412,239.041870 401.256714,231.245758 
z"/>
<path fill="#F1C400" opacity="1.000000" stroke="none" 
	d="
M563.576233,204.172791 
	C568.957092,203.357788 573.943298,202.194916 578.950989,202.093521 
	C592.436279,201.820465 605.931213,201.938263 619.421143,202.049484 
	C622.330261,202.073486 625.305054,202.438492 628.124939,203.144302 
	C633.219543,204.419464 635.867981,209.739624 634.989563,216.240250 
	C634.335876,221.077408 630.039246,224.934372 624.905640,224.973450 
	C613.913696,225.057144 602.918945,224.876892 591.928833,225.041702 
	C584.335632,225.155563 576.750977,225.760361 569.157654,225.968277 
	C563.563782,226.121460 558.457642,222.793304 557.139221,218.461121 
	C555.387756,212.705872 557.538269,207.677277 563.576233,204.172791 
z"/>
<path fill="#000000" opacity="1.000000" stroke="none" 
	d="
M638.578857,501.769531 
	C626.719299,507.764496 614.263733,510.581055 601.596558,510.752106 
	C590.257812,510.905212 578.992004,508.629578 568.431763,503.816223 
	C550.762268,495.762421 537.295959,483.006409 528.672058,465.884918 
	C521.188660,451.027649 518.973572,435.140381 522.689453,418.342377 
	C526.131409,402.782806 533.331360,389.712646 544.690063,378.904236 
	C557.291077,366.913727 572.123535,359.706696 589.732056,357.879669 
	C610.534424,355.721252 629.566284,359.529510 646.632507,371.925842 
	C647.282898,372.398224 648.076172,372.690094 648.677429,373.210907 
	C650.564941,374.845764 652.392578,376.549835 654.951782,378.869110 
	C651.088806,381.946503 647.809387,384.738342 644.346863,387.280792 
	C636.649170,392.933075 634.811523,399.873627 639.529846,406.077728 
	C643.023621,410.671661 647.605469,412.336090 652.609070,409.580872 
	C657.700500,406.777344 662.219849,402.931396 666.971313,399.516266 
	C668.497864,398.419006 669.965820,397.240112 671.467407,396.093323 
	C677.703857,408.490509 682.238403,421.177124 681.807068,434.682922 
	C681.270203,451.491608 675.143250,466.539520 664.701843,479.968353 
	C657.586121,489.119843 648.393555,495.438873 638.578857,501.769531 
z"/>
<path fill="#000000" opacity="1.000000" stroke="none" 
	d="
M699.037170,400.965302 
	C697.651184,397.275238 696.411377,393.934662 694.919250,390.710846 
	C693.419739,387.471405 691.669006,384.348236 689.634277,380.411621 
	C708.914368,364.272705 728.298340,348.046753 747.934387,331.609802 
	C755.128662,337.720673 758.282166,346.088501 761.842041,353.973999 
	C768.177063,368.006927 772.720642,382.707184 775.393982,397.898254 
	C776.747437,405.589386 777.682434,413.366302 778.412048,421.141479 
	C778.518005,422.271606 776.627319,424.292816 775.290161,424.707764 
	C772.528198,425.564789 769.518677,425.928558 766.607178,425.948303 
	C750.625244,426.056824 734.641724,426.063416 718.659790,425.953125 
	C714.904114,425.927246 711.117371,425.509003 707.422546,424.841400 
	C706.449890,424.665649 705.380005,423.003906 705.015381,421.820923 
	C702.924316,415.036560 701.032288,408.190887 699.037170,400.965302 
z"/>
</svg>