<svg version="1.1" id="Layer_1" xmlns="http://www.w3.org/2000/svg" xmlns:xlink="http://www.w3.org/1999/xlink" x="0px" y="0px"
	 width="100%" viewBox="0 0 3125 1875" enable-background="new 0 0 3125 1875" xml:space="preserve">
<path fill="#000000" opacity="1.000000" stroke="none" 
	d="
M2024.000000,1878.000000 
	C1349.333374,1878.000000 675.666687,1878.000000 2.000000,1878.000000 
	C2.000000,1252.666626 2.000000,627.333313 2.000000,2.000000 
	C1044.000000,2.000000 2086.000000,2.000000 3128.000000,2.000000 
	C3128.000000,627.333313 3128.000000,1252.666626 3128.000000,1878.000000 
	C2760.333252,1878.000000 2392.666748,1878.000000 2024.000000,1878.000000 
M1726.700806,1211.480469 
	C1738.494873,1212.849854 1744.594849,1221.532227 1740.420776,1232.275757 
	C1738.048706,1238.381104 1734.593262,1244.295776 1730.585083,1249.494019 
	C1716.048706,1268.346558 1696.884033,1281.390991 1675.576050,1291.430664 
	C1654.114990,1301.542480 1631.516724,1308.176758 1608.233276,1312.479614 
	C1594.518188,1315.014038 1590.209351,1323.681885 1595.730347,1338.685913 
	C1597.446167,1343.348633 1600.035400,1347.740967 1601.323853,1352.500854 
	C1605.919434,1369.475830 1609.652222,1386.697632 1614.678223,1403.537354 
	C1617.274902,1412.237305 1614.858032,1417.193237 1608.225952,1423.021606 
	C1580.265991,1447.592896 1552.704712,1472.633057 1525.488037,1498.027344 
	C1514.325684,1508.442627 1504.365479,1520.151855 1493.927124,1531.336548 
	C1460.865845,1566.761475 1435.195312,1606.837280 1418.659912,1652.482910 
	C1412.655029,1669.059570 1408.600830,1686.171021 1407.660889,1703.934204 
	C1405.443848,1745.830811 1433.051270,1774.754517 1475.058838,1774.162842 
	C1491.726196,1773.928101 1507.098022,1768.764526 1521.600464,1760.890503 
	C1543.444336,1749.030273 1561.903320,1733.020264 1578.654419,1714.755981 
	C1600.380981,1691.066162 1618.666260,1665.214600 1632.263062,1635.958252 
	C1651.623047,1594.300659 1660.402100,1550.244751 1661.372925,1504.752930 
	C1661.908081,1479.673950 1659.304443,1454.528198 1658.077271,1428.598511 
	C1661.779663,1425.378540 1666.265503,1421.438599 1670.792236,1417.546021 
	C1718.152588,1376.821533 1765.603760,1336.201904 1812.835938,1295.329224 
	C1827.909790,1282.284912 1842.515381,1268.690063 1857.064209,1255.057739 
	C1859.521118,1252.755615 1861.550171,1249.145508 1862.125732,1245.851196 
	C1863.653564,1237.104004 1859.635864,1230.347412 1851.631226,1226.344727 
	C1844.115845,1222.586792 1837.481567,1223.638428 1830.556885,1229.769531 
	C1821.350098,1237.920898 1812.268799,1246.216309 1802.973511,1254.264893 
	C1753.752563,1296.883789 1704.486206,1339.449951 1655.207153,1382.001587 
	C1653.572510,1383.413086 1651.635376,1384.474365 1649.035278,1386.246948 
	C1645.118530,1371.659180 1641.470581,1358.072266 1637.711914,1344.072876 
	C1640.444214,1343.099365 1642.579590,1342.331055 1644.720093,1341.577148 
	C1657.574829,1337.049438 1670.615601,1332.984253 1683.248169,1327.904297 
	C1710.335205,1317.012085 1735.297607,1302.669678 1755.397339,1280.943970 
	C1776.256958,1258.396973 1783.763916,1232.531616 1774.093994,1202.827393 
	C1769.175293,1187.718384 1758.651611,1178.617310 1742.670166,1175.561768 
	C1731.236572,1173.375854 1720.124756,1174.642578 1709.177490,1177.280762 
	C1673.979126,1185.763672 1643.086670,1202.916016 1614.801270,1225.150635 
	C1612.521118,1226.942993 1609.944458,1229.031128 1607.244751,1229.508789 
	C1588.646118,1232.799683 1569.972290,1235.466553 1550.973145,1231.479004 
	C1550.382568,1228.868652 1549.886230,1226.637085 1549.372070,1224.409424 
	C1546.257446,1210.913330 1539.844727,1199.766235 1527.476440,1192.528687 
	C1525.387573,1191.306519 1523.946289,1188.713867 1522.613525,1186.508057 
	C1515.266357,1174.347900 1507.189331,1172.043823 1495.165161,1179.623657 
	C1481.879883,1187.998413 1469.923706,1198.042725 1459.779907,1210.140137 
	C1456.588501,1213.946045 1453.525391,1217.958130 1449.820068,1221.211426 
	C1444.122192,1226.214355 1437.761475,1230.454834 1431.959106,1235.347412 
	C1402.442749,1260.235718 1372.373047,1284.364868 1338.793335,1303.694824 
	C1333.624512,1306.670410 1328.330811,1309.727539 1322.706543,1311.546265 
	C1313.407471,1314.553711 1308.238403,1311.080078 1307.935425,1301.381226 
	C1307.582642,1290.090332 1307.464233,1278.656982 1308.815796,1267.475464 
	C1311.732666,1243.346313 1318.571045,1220.010376 1326.777954,1197.246826 
	C1341.085693,1157.561279 1355.752686,1117.980957 1371.403564,1078.809692 
	C1394.121094,1021.952087 1420.796021,966.902405 1450.454468,913.329163 
	C1461.240967,893.845337 1472.633057,874.697571 1483.506226,855.260742 
	C1489.282349,844.935364 1486.384766,835.252930 1476.450806,829.804199 
	C1467.163818,824.710510 1457.599854,827.361694 1451.699219,836.950684 
	C1445.776123,846.576538 1440.022949,856.309692 1434.332886,866.076050 
	C1400.816284,923.604858 1370.724854,982.893616 1344.229614,1043.957886 
	C1317.742188,1105.004272 1295.949951,1167.742798 1278.729736,1232.038086 
	C1272.780640,1254.250000 1268.369629,1276.663696 1269.544067,1299.913330 
	C1270.111572,1311.148560 1272.746460,1321.585449 1278.484985,1331.169678 
	C1285.697266,1343.215576 1296.501221,1349.563843 1310.519287,1350.151978 
	C1322.378906,1350.649780 1333.619995,1347.993408 1344.307251,1342.869507 
	C1368.753418,1331.149292 1390.761353,1315.648071 1412.178101,1299.217041 
	C1414.947510,1297.092285 1417.900757,1295.207031 1421.700073,1292.562622 
	C1422.006348,1295.074951 1422.087036,1296.294434 1422.311279,1297.486694 
	C1424.203125,1307.546631 1425.305176,1317.847168 1428.236206,1327.596802 
	C1431.982056,1340.056152 1441.052124,1348.042725 1454.175049,1349.259277 
	C1461.591309,1349.946655 1469.632080,1349.400757 1476.711548,1347.211426 
	C1500.510742,1339.851440 1518.619019,1324.198364 1532.607300,1304.164185 
	C1539.729614,1293.963623 1544.620117,1282.204834 1550.738281,1270.740112 
	C1574.474976,1273.621948 1598.738159,1271.377686 1622.309814,1263.179932 
	C1626.931396,1261.572754 1631.821655,1259.438110 1635.343506,1256.195068 
	C1650.431763,1242.301270 1667.368286,1231.202271 1686.098022,1223.251221 
	C1698.517334,1217.978760 1710.920410,1211.786987 1726.700806,1211.480469 
M1572.375244,451.007324 
	C1572.375977,445.674408 1572.296997,440.339966 1572.396729,435.008911 
	C1572.535034,427.608612 1572.597656,427.632996 1579.803345,426.009491 
	C1599.487427,421.574554 1615.598145,411.586182 1626.339111,394.318970 
	C1630.846924,387.071808 1633.752808,378.828278 1637.860962,370.021790 
	C1640.526123,369.885986 1644.125610,369.559601 1647.726440,369.544189 
	C1662.058716,369.482819 1676.392822,369.640167 1690.723389,369.472260 
	C1699.267578,369.372162 1702.437744,366.402344 1702.285034,358.229187 
	C1702.117798,349.284912 1701.769409,340.288025 1700.614014,331.429626 
	C1698.030884,311.624512 1690.077881,293.757233 1679.402588,277.061188 
	C1677.161987,273.556915 1675.108276,270.309906 1676.831909,266.005219 
	C1682.529297,251.775772 1688.327637,237.623291 1699.094971,226.209213 
	C1704.931030,220.022598 1704.889648,219.260162 1700.409058,211.542007 
	C1699.608521,210.163193 1698.977051,208.686401 1698.218872,207.156677 
	C1704.461792,198.189362 1710.504395,189.509628 1716.984009,180.202209 
	C1739.966919,200.167374 1757.693970,222.987000 1771.825439,250.287064 
	C1762.854980,254.871689 1754.305176,259.182068 1745.815552,263.608185 
	C1742.214600,265.485626 1739.123169,267.184570 1734.823242,264.282227 
	C1731.670776,262.154449 1727.603027,263.201996 1724.918091,266.394592 
	C1722.418945,269.365997 1721.355469,272.745361 1723.147949,276.578949 
	C1723.849976,278.080322 1724.291382,279.701630 1724.957642,281.221832 
	C1735.654907,305.634033 1740.929443,331.129517 1740.290649,357.808685 
	C1740.083374,366.461639 1739.923828,375.116730 1739.601929,383.765594 
	C1739.440918,388.090637 1741.106323,390.870575 1745.490112,391.571106 
	C1750.086548,392.305603 1753.253906,390.397003 1754.790161,385.985748 
	C1755.222656,384.743652 1755.653442,383.407104 1755.640869,382.118195 
	C1755.476929,365.176575 1756.386475,348.118164 1754.674194,331.328918 
	C1753.073242,315.631195 1748.670166,300.219177 1745.299316,283.696198 
	C1753.605957,279.318756 1762.657104,274.510590 1771.745972,269.774719 
	C1776.763672,267.160187 1781.939697,264.836517 1786.868164,262.067963 
	C1791.151611,259.661652 1793.093506,256.168365 1790.495117,251.236481 
	C1788.637695,247.711395 1787.064331,244.034134 1785.152588,240.540619 
	C1768.553101,210.207733 1748.043823,183.011765 1720.909424,161.227219 
	C1713.018677,154.892151 1709.690430,155.931198 1704.571167,164.731430 
	C1696.733643,178.204620 1689.299316,191.964111 1678.213135,203.264526 
	C1673.981689,207.577667 1674.009399,210.983276 1677.192017,216.512268 
	C1678.018433,217.948059 1678.744507,219.441635 1679.786743,221.421478 
	C1678.380249,224.150665 1676.761963,227.028641 1675.381714,230.016495 
	C1670.369141,240.866989 1664.310425,251.408142 1660.826904,262.736481 
	C1658.003906,271.916809 1653.283813,278.589905 1646.036499,284.304962 
	C1635.670410,292.479309 1625.586670,301.011444 1614.985474,309.716736 
	C1602.799316,297.765350 1588.081299,292.794922 1572.375244,289.506775 
	C1572.375244,284.203369 1572.449097,279.571411 1572.359375,274.942627 
	C1572.184937,265.958099 1571.922363,256.975220 1571.688965,247.991852 
	C1571.570435,243.436111 1569.049316,241.528015 1564.670654,241.437012 
	C1558.587158,241.310577 1556.553955,243.463684 1556.314331,250.966263 
	C1555.902588,263.853882 1555.604614,276.745117 1555.247192,290.071960 
	C1520.700562,297.011230 1500.689453,317.975708 1494.734497,352.313477 
	C1479.486694,352.313477 1465.316528,352.313477 1450.389038,352.313477 
	C1450.660767,348.691345 1450.539062,346.038361 1451.102051,343.539734 
	C1453.722046,331.912933 1456.548218,320.332733 1459.264282,308.727417 
	C1460.249634,304.517334 1459.992920,300.614868 1455.430786,298.583160 
	C1451.389282,296.783325 1446.637573,298.540375 1444.615723,303.071136 
	C1436.628296,320.970337 1433.712402,339.956451 1433.847900,359.382355 
	C1433.896851,366.405914 1437.364502,369.192932 1444.891235,369.434662 
	C1453.881470,369.723419 1462.887939,369.514893 1471.887329,369.518250 
	C1479.500366,369.521057 1487.113281,369.518829 1495.420776,369.518829 
	C1503.456177,401.627625 1524.168091,420.121552 1555.024170,426.836517 
	C1555.024170,451.304810 1555.024170,474.847839 1555.024170,498.235565 
	C1542.756470,501.151459 1541.482300,503.625885 1547.012573,514.230591 
	C1554.818970,514.230591 1563.005493,514.334717 1571.188477,514.211975 
	C1602.047607,513.749084 1628.572388,501.669739 1652.825073,483.572754 
	C1654.157471,482.578461 1655.619751,481.681152 1656.717285,480.464264 
	C1659.559326,477.312988 1659.614258,473.290405 1657.245361,470.422913 
	C1655.713135,468.568329 1651.945557,467.382812 1649.479980,467.776855 
	C1646.435547,468.263367 1643.472534,470.393585 1640.874878,472.346313 
	C1628.785156,481.434784 1615.494263,488.374420 1601.227783,493.028137 
	C1592.310913,495.936829 1583.121460,499.574402 1572.375244,497.198608 
	C1572.375244,482.213013 1572.375244,467.608215 1572.375244,451.007324 
M1812.344849,376.020935 
	C1812.132935,360.034302 1812.307861,344.029327 1811.549805,328.068634 
	C1811.159180,319.848999 1809.435547,311.636902 1807.678223,303.559814 
	C1806.692261,299.028412 1802.533081,296.878357 1798.579346,297.652954 
	C1794.661499,298.420532 1792.148804,301.976501 1792.420654,306.615112 
	C1792.496826,307.915985 1793.185913,309.174896 1793.309570,310.479980 
	C1794.778687,325.978302 1797.263550,341.478638 1797.308105,356.984711 
	C1797.348755,371.139404 1795.352417,385.402283 1793.083008,399.428070 
	C1791.359497,410.079895 1787.798096,420.434387 1784.872681,431.616333 
	C1780.477661,429.986694 1777.399536,428.938263 1774.392822,427.714508 
	C1761.474976,422.456848 1748.683960,416.868622 1735.645996,411.930420 
	C1720.634277,406.244690 1705.218872,402.316956 1688.891357,403.339966 
	C1685.335938,403.562714 1682.401245,403.884521 1680.761230,407.609589 
	C1676.208984,417.949860 1671.349731,428.158844 1667.012573,438.586456 
	C1666.128906,440.711029 1666.177124,443.985870 1667.213135,446.002258 
	C1670.255249,451.923401 1678.222046,452.014008 1681.632446,446.002625 
	C1686.518921,437.388916 1690.701294,428.375763 1695.604980,418.703583 
	C1725.277344,422.362122 1750.982910,436.191925 1778.257324,448.266113 
	C1766.843750,475.943695 1751.049805,499.323792 1730.373535,520.838196 
	C1722.714355,512.644165 1715.518799,504.946228 1708.011353,496.914612 
	C1710.135620,494.202881 1711.997192,491.902191 1713.776489,489.539520 
	C1717.776855,484.227722 1721.972778,479.041779 1725.640381,473.507263 
	C1728.759766,468.799896 1728.075195,464.872711 1724.455688,461.990509 
	C1720.605347,458.924408 1716.437134,459.738953 1712.417358,464.384491 
	C1711.548950,465.388214 1710.753906,466.460388 1709.979248,467.539856 
	C1688.278809,497.782166 1660.437866,520.085449 1625.465332,533.323303 
	C1616.811279,536.599060 1614.735596,539.958008 1616.499390,548.483459 
	C1619.456787,562.776855 1622.947266,576.962769 1626.410767,591.145874 
	C1627.006714,593.586365 1628.580811,595.787964 1629.990356,598.691895 
	C1634.942017,597.963196 1639.873779,598.212158 1643.950317,596.465210 
	C1659.814453,589.666687 1675.421875,582.266479 1691.080688,574.995056 
	C1692.855469,574.170837 1694.587891,572.968994 1695.926880,571.551819 
	C1698.743042,568.571045 1699.261230,565.095825 1696.954712,561.520203 
	C1694.866211,558.282593 1691.725708,557.295471 1688.260742,558.567505 
	C1685.168945,559.702515 1682.275391,561.410645 1679.360229,562.987732 
	C1667.456665,569.427307 1655.600342,575.966675 1641.050537,579.292542 
	C1638.600830,568.801208 1636.299805,558.946167 1634.197388,549.941711 
	C1655.350830,536.776672 1675.546753,524.207458 1696.914551,510.908966 
	C1700.149170,514.392029 1704.223267,518.728027 1708.239624,523.116821 
	C1713.174316,528.509155 1717.897095,534.107056 1723.021729,539.310547 
	C1726.898315,543.246948 1732.000610,543.436584 1735.288086,540.049683 
	C1740.613647,534.563110 1746.010864,529.111450 1750.920288,523.260986 
	C1786.290283,481.110840 1807.796875,433.071045 1812.344849,376.020935 
M1447.497192,581.455017 
	C1455.668335,585.147949 1463.734497,589.101501 1472.046387,592.444519 
	C1477.838745,594.774170 1481.972656,593.085632 1483.800537,588.643311 
	C1485.660278,584.124146 1483.976318,580.595703 1478.198608,577.700134 
	C1470.773804,573.979065 1463.102417,570.729248 1455.802124,566.785950 
	C1446.836914,561.943237 1437.678833,557.267029 1429.947144,549.549622 
	C1436.874268,538.888855 1443.548340,528.607788 1450.232544,518.333313 
	C1456.120972,509.282074 1455.582275,507.282990 1447.545166,499.875824 
	C1442.461792,495.191040 1437.767090,489.977631 1433.522827,484.515930 
	C1428.020386,477.435455 1423.225952,469.809662 1417.968384,462.533051 
	C1412.203247,454.553650 1407.907227,453.836456 1399.502563,459.254883 
	C1396.989990,460.874664 1394.669922,462.791260 1392.170654,464.433441 
	C1384.797485,469.278076 1377.378906,474.053528 1368.615112,479.740448 
	C1362.037720,464.763214 1355.759277,451.247406 1350.188354,437.446106 
	C1347.476685,430.728394 1346.183228,423.447937 1344.070190,416.476074 
	C1342.196411,410.293854 1338.510010,408.131805 1332.972412,409.641693 
	C1328.956055,410.736816 1327.283325,414.139648 1328.453979,420.301025 
	C1329.380127,425.175568 1330.898682,429.942688 1332.250000,434.730438 
	C1338.073242,455.360931 1346.919067,474.632416 1358.556519,492.614227 
	C1363.769775,500.669556 1367.540405,501.357269 1375.790649,496.083374 
	C1378.312622,494.471191 1380.790527,492.790131 1383.287476,491.138641 
	C1390.968140,486.058289 1398.648315,480.976929 1406.405640,475.844971 
	C1416.725830,487.212646 1426.409668,497.879456 1436.042725,508.490234 
	C1428.446045,519.830994 1421.727783,530.141724 1414.718140,540.250427 
	C1406.752808,551.737305 1406.961304,554.741394 1418.600220,562.843567 
	C1427.592529,569.103455 1437.043091,574.704956 1447.497192,581.455017 
M1462.747925,129.983963 
	C1444.236938,137.842010 1427.844849,149.200119 1411.790405,161.066315 
	C1407.191650,164.465469 1406.341431,169.500885 1409.025024,173.174316 
	C1411.655518,176.775085 1416.623657,177.230438 1421.500854,174.236710 
	C1422.912231,173.370438 1424.160278,172.241898 1425.545776,171.328552 
	C1436.086182,164.380051 1446.524902,157.266037 1457.250488,150.614929 
	C1461.598999,147.918304 1466.583008,146.246384 1471.972778,143.791611 
	C1474.097412,149.867050 1475.911865,154.807083 1477.557739,159.802689 
	C1488.224609,192.180038 1494.792114,225.219940 1493.644287,259.511230 
	C1493.488403,264.169250 1493.507324,268.840790 1493.654053,273.499512 
	C1493.868164,280.296967 1495.186035,281.839813 1500.576294,282.181549 
	C1506.003906,282.525696 1509.438843,279.963196 1509.552979,274.041382 
	C1509.841187,259.062927 1510.498779,244.001877 1509.339111,229.103836 
	C1506.930786,198.166840 1498.264648,168.514679 1488.574829,139.181183 
	C1482.677002,121.327293 1481.666626,120.983620 1462.747925,129.983963 
M1381.814087,397.537933 
	C1382.472168,401.123260 1383.050049,404.725555 1383.803833,408.290649 
	C1385.810791,417.783386 1387.591919,419.391846 1397.122803,419.483368 
	C1410.778442,419.614532 1424.436890,419.452576 1438.093018,419.561066 
	C1441.602417,419.588928 1445.107422,420.161194 1449.321411,420.548340 
	C1449.673462,427.382050 1449.852661,433.310852 1450.325317,439.216125 
	C1450.667603,443.494141 1450.967651,447.855774 1452.063965,451.973114 
	C1453.477661,457.282654 1456.689941,458.990936 1461.787598,458.132629 
	C1466.599976,457.322327 1468.567749,454.227783 1468.275879,449.628235 
	C1467.477295,437.046753 1466.565918,424.472412 1465.698608,411.895294 
	C1465.353516,406.891510 1462.938843,403.848389 1457.717407,403.432770 
	C1452.434082,403.012268 1447.156250,402.261993 1441.869263,402.195251 
	C1427.928833,402.019287 1413.984741,402.135712 1400.663574,402.135712 
	C1399.676758,400.723724 1399.073242,400.226440 1398.948975,399.629364 
	C1394.287109,377.248138 1394.701050,354.687378 1397.197510,332.153748 
	C1398.105103,323.961151 1400.627197,315.959473 1402.072754,307.810425 
	C1403.101807,302.010101 1401.145752,299.019348 1396.385742,297.874207 
	C1392.111084,296.845825 1388.041016,299.186951 1386.298218,303.873322 
	C1385.607056,305.731873 1385.278809,307.727661 1384.814697,309.667938 
	C1377.998047,338.167419 1378.205688,366.925659 1381.814087,397.537933 
M1575.326294,563.206787 
	C1580.643433,562.145874 1582.151489,558.541809 1581.628540,553.655579 
	C1581.057007,548.314392 1576.896118,547.909912 1572.883789,547.580444 
	C1569.907104,547.335938 1566.900635,547.416687 1563.907349,547.416443 
	C1544.821289,547.414917 1526.357056,543.722595 1508.273315,537.916382 
	C1505.255981,536.947571 1502.449707,535.321106 1499.999756,534.205261 
	C1502.263184,520.668335 1504.510742,508.307098 1506.362549,495.886810 
	C1508.848145,479.215637 1509.436279,462.224884 1515.024902,446.089600 
	C1515.447510,444.869171 1515.597778,443.517426 1515.661621,442.216248 
	C1515.881348,437.738464 1512.958496,435.597107 1509.274902,434.445190 
	C1505.678955,433.320709 1502.590576,434.608154 1500.808960,437.912292 
	C1499.563721,440.221741 1498.524414,442.780090 1498.058594,445.348022 
	C1495.993164,456.732025 1494.291382,468.182068 1492.227417,479.566376 
	C1489.100098,496.816406 1485.924683,514.060486 1482.493896,531.251953 
	C1480.113892,543.178223 1481.542358,545.916382 1492.705933,549.997620 
	C1518.848389,559.554932 1545.760010,564.325195 1575.326294,563.206787 
M1635.609741,134.196457 
	C1627.091797,172.365906 1618.560669,210.532471 1610.074097,248.708893 
	C1609.139404,252.913330 1608.300415,257.152039 1607.702515,261.414886 
	C1607.044434,266.107422 1609.235352,269.121277 1613.886719,270.069672 
	C1618.500977,271.010529 1621.751099,269.077820 1623.170898,264.659210 
	C1624.284546,261.193451 1624.967407,257.584442 1625.758179,254.020523 
	C1633.152954,220.694473 1640.494019,187.356430 1647.952148,154.044632 
	C1649.010742,149.316711 1650.613403,144.710632 1652.049927,139.752075 
	C1655.574463,140.702362 1658.083130,141.504501 1660.647095,142.043442 
	C1665.719116,143.109543 1667.926025,139.997147 1669.201172,135.816727 
	C1670.440918,131.752563 1669.653198,128.708511 1665.064209,127.280937 
	C1659.357544,125.505661 1653.806396,123.210548 1648.064331,121.574226 
	C1641.550049,119.717880 1640.298950,120.489540 1637.568604,126.922188 
	C1636.797729,128.738266 1636.414062,130.718735 1635.609741,134.196457 
M1363.807129,243.883377 
	C1369.768188,234.296066 1375.678467,224.676651 1381.713989,215.136520 
	C1384.279419,211.081711 1383.886475,207.560349 1380.176025,204.619446 
	C1377.239746,202.292206 1370.983032,202.988785 1368.569946,206.210922 
	C1355.560913,223.580658 1344.899170,242.313553 1336.519653,262.342682 
	C1335.014648,265.940094 1335.868774,269.345825 1338.733276,271.257874 
	C1340.946411,272.735291 1345.535645,274.074738 1346.826782,272.935303 
	C1353.343140,267.184753 1358.500244,271.520844 1364.086548,274.102325 
	C1375.235840,279.254547 1386.324219,284.558563 1397.635742,289.330933 
	C1403.034302,291.608612 1406.326538,290.054962 1408.421143,285.687012 
	C1410.714966,280.903717 1410.009155,277.851410 1405.108032,274.726288 
	C1401.772217,272.599304 1398.005981,271.140656 1394.409424,269.431030 
	C1383.046997,264.029663 1371.673828,258.650787 1359.835571,253.040909 
	C1361.077026,250.087234 1362.078979,247.703323 1363.807129,243.883377 
M1559.125122,123.015793 
	C1570.006470,123.321274 1580.887817,123.628189 1591.769165,123.931175 
	C1594.424561,124.005119 1597.103882,124.318161 1599.730225,124.072845 
	C1603.470459,123.723495 1605.799438,121.504173 1606.221313,117.681725 
	C1606.633301,113.948433 1605.136597,111.018387 1601.543701,109.828712 
	C1598.750122,108.903664 1595.736328,108.275009 1592.803223,108.202003 
	C1577.507202,107.821304 1562.203491,107.419395 1546.906738,107.539825 
	C1540.648315,107.589088 1534.364380,108.717918 1528.158203,109.752914 
	C1522.627563,110.675255 1519.885498,113.943810 1520.382568,118.135399 
	C1520.953247,122.947433 1525.028442,125.810043 1530.422363,125.378403 
	C1539.336182,124.665085 1548.258789,124.059555 1559.125122,123.015793 
M1592.301880,609.493713 
	C1599.027344,606.731140 1601.004272,604.334778 1600.092163,600.050659 
	C1599.170166,595.720276 1595.396606,593.505493 1589.243042,593.899780 
	C1582.636230,594.323120 1576.014160,595.534119 1569.442871,595.276550 
	C1555.558960,594.732117 1541.702759,593.468506 1527.837280,592.470459 
	C1523.107788,592.129944 1518.948364,594.766418 1517.916870,598.856995 
	C1516.765991,603.421631 1518.803955,606.537415 1524.377563,608.171631 
	C1526.892700,608.908997 1529.552734,609.197388 1532.166260,609.546387 
	C1551.648438,612.147583 1571.141602,611.567810 1592.301880,609.493713 
M1319.619873,358.582031 
	C1319.658447,362.235291 1319.468262,365.909119 1319.795166,369.536407 
	C1320.179321,373.799469 1322.890503,375.941315 1327.119141,376.170441 
	C1331.393555,376.402039 1334.207275,374.222137 1335.245117,370.313263 
	C1335.909912,367.810089 1335.555908,365.043427 1335.717041,362.398438 
	C1336.582764,348.192200 1337.382324,333.981049 1338.393311,319.785004 
	C1338.720947,315.184448 1339.833496,310.641327 1340.194580,306.041138 
	C1340.547729,301.543671 1337.283325,298.877441 1333.622314,298.756165 
	C1330.932251,298.667053 1327.701904,300.788849 1325.572876,302.825226 
	C1324.153320,304.182983 1323.923706,307.093384 1323.716187,309.359711 
	C1322.269775,325.156067 1320.968140,340.965668 1319.619873,358.582031 
M1590.952393,165.966049 
	C1591.926270,155.863754 1590.657349,153.895416 1580.938965,153.585724 
	C1569.969360,153.236160 1558.975342,153.612823 1547.992676,153.744919 
	C1545.338013,153.776855 1542.637817,153.830338 1540.043579,154.322464 
	C1533.068481,155.645569 1530.268677,162.597366 1535.025757,167.675079 
	C1536.684570,169.445694 1540.346313,170.162415 1543.020874,170.017944 
	C1555.221680,169.358810 1567.336670,167.471436 1579.648560,169.329910 
	C1582.910889,169.822372 1586.519531,168.021439 1590.952393,165.966049 
M1450.793457,221.604462 
	C1451.259888,221.134094 1451.772339,220.700836 1452.185425,220.187622 
	C1456.494263,214.835342 1456.706299,210.660568 1452.860962,207.307068 
	C1449.486816,204.364487 1444.721802,204.780853 1440.484619,208.794281 
	C1435.678345,213.346893 1430.880859,217.950500 1426.514282,222.914246 
	C1421.944458,228.108963 1417.577026,233.546570 1413.717529,239.279434 
	C1410.969727,243.360916 1412.367676,247.693329 1416.350342,250.480774 
	C1419.925415,252.982849 1423.157837,252.398163 1426.040771,249.257614 
	C1427.158203,248.040390 1428.274170,246.821487 1429.371704,245.586365 
	C1436.171753,237.933807 1442.966431,230.276520 1450.793457,221.604462 
M1579.858643,200.138733 
	C1575.215332,200.136856 1570.571289,200.086060 1565.928711,200.144379 
	C1558.646118,200.235855 1551.315186,199.927841 1544.097168,200.678345 
	C1537.853149,201.327591 1535.229492,204.808044 1535.757568,209.645248 
	C1536.262207,214.267975 1538.651489,216.114487 1545.065796,216.184341 
	C1556.313599,216.306839 1567.563843,216.253113 1578.812622,216.197617 
	C1585.519653,216.164520 1588.945435,214.159470 1589.443481,209.599670 
	C1590.057983,203.974030 1586.954346,201.031845 1579.858643,200.138733 
z"/>
<path fill="#EEC100" opacity="1.000000" stroke="none" 
	d="
M1725.828125,1211.480591 
	C1710.920410,1211.786987 1698.517334,1217.978760 1686.098022,1223.251221 
	C1667.368286,1231.202271 1650.431763,1242.301270 1635.343506,1256.195068 
	C1631.821655,1259.438110 1626.931396,1261.572754 1622.309814,1263.179932 
	C1598.738159,1271.377686 1574.474976,1273.621948 1550.738281,1270.740112 
	C1544.620117,1282.204834 1539.729614,1293.963623 1532.607300,1304.164185 
	C1518.619019,1324.198364 1500.510742,1339.851440 1476.711548,1347.211426 
	C1469.632080,1349.400757 1461.591309,1349.946655 1454.175049,1349.259277 
	C1441.052124,1348.042725 1431.982056,1340.056152 1428.236206,1327.596802 
	C1425.305176,1317.847168 1424.203125,1307.546631 1422.311279,1297.486694 
	C1422.087036,1296.294434 1422.006348,1295.074951 1421.700073,1292.562622 
	C1417.900757,1295.207031 1414.947510,1297.092285 1412.178101,1299.217041 
	C1390.761353,1315.648071 1368.753418,1331.149292 1344.307251,1342.869507 
	C1333.619995,1347.993408 1322.378906,1350.649780 1310.519287,1350.151978 
	C1296.501221,1349.563843 1285.697266,1343.215576 1278.484985,1331.169678 
	C1272.746460,1321.585449 1270.111572,1311.148560 1269.544067,1299.913330 
	C1268.369629,1276.663696 1272.780640,1254.250000 1278.729736,1232.038086 
	C1295.949951,1167.742798 1317.742188,1105.004272 1344.229614,1043.957886 
	C1370.724854,982.893616 1400.816284,923.604858 1434.332886,866.076050 
	C1440.022949,856.309692 1445.776123,846.576538 1451.699219,836.950684 
	C1457.599854,827.361694 1467.163818,824.710510 1476.450806,829.804199 
	C1486.384766,835.252930 1489.282349,844.935364 1483.506226,855.260742 
	C1472.633057,874.697571 1461.240967,893.845337 1450.454468,913.329163 
	C1420.796021,966.902405 1394.121094,1021.952087 1371.403564,1078.809692 
	C1355.752686,1117.980957 1341.085693,1157.561279 1326.777954,1197.246826 
	C1318.571045,1220.010376 1311.732666,1243.346313 1308.815796,1267.475464 
	C1307.464233,1278.656982 1307.582642,1290.090332 1307.935425,1301.381226 
	C1308.238403,1311.080078 1313.407471,1314.553711 1322.706543,1311.546265 
	C1328.330811,1309.727539 1333.624512,1306.670410 1338.793335,1303.694824 
	C1372.373047,1284.364868 1402.442749,1260.235718 1431.959106,1235.347412 
	C1437.761475,1230.454834 1444.122192,1226.214355 1449.820068,1221.211426 
	C1453.525391,1217.958130 1456.588501,1213.946045 1459.779907,1210.140137 
	C1469.923706,1198.042725 1481.879883,1187.998413 1495.165161,1179.623657 
	C1507.189331,1172.043823 1515.266357,1174.347900 1522.613525,1186.508057 
	C1523.946289,1188.713867 1525.387573,1191.306519 1527.476440,1192.528687 
	C1539.844727,1199.766235 1546.257446,1210.913330 1549.372070,1224.409424 
	C1549.886230,1226.637085 1550.382568,1228.868652 1550.973145,1231.479004 
	C1569.972290,1235.466553 1588.646118,1232.799683 1607.244751,1229.508789 
	C1609.944458,1229.031128 1612.521118,1226.942993 1614.801270,1225.150635 
	C1643.086670,1202.916016 1673.979126,1185.763672 1709.177490,1177.280762 
	C1720.124756,1174.642578 1731.236572,1173.375854 1742.670166,1175.561768 
	C1758.651611,1178.617310 1769.175293,1187.718384 1774.093994,1202.827393 
	C1783.763916,1232.531616 1776.256958,1258.396973 1755.397339,1280.943970 
	C1735.297607,1302.669678 1710.335205,1317.012085 1683.248169,1327.904297 
	C1670.615601,1332.984253 1657.574829,1337.049438 1644.720093,1341.577148 
	C1642.579590,1342.331055 1640.444214,1343.099365 1637.711914,1344.072876 
	C1641.470581,1358.072266 1645.118530,1371.659180 1649.035278,1386.246948 
	C1651.635376,1384.474365 1653.572510,1383.413086 1655.207153,1382.001587 
	C1704.486206,1339.449951 1753.752563,1296.883789 1802.973511,1254.264893 
	C1812.268799,1246.216309 1821.350098,1237.920898 1830.556885,1229.769531 
	C1837.481567,1223.638428 1844.115845,1222.586792 1851.631226,1226.344727 
	C1859.635864,1230.347412 1863.653564,1237.104004 1862.125732,1245.851196 
	C1861.550171,1249.145508 1859.521118,1252.755615 1857.064209,1255.057739 
	C1842.515381,1268.690063 1827.909790,1282.284912 1812.835938,1295.329224 
	C1765.603760,1336.201904 1718.152588,1376.821533 1670.792236,1417.546021 
	C1666.265503,1421.438599 1661.779663,1425.378540 1658.077271,1428.598511 
	C1659.304443,1454.528198 1661.908081,1479.673950 1661.372925,1504.752930 
	C1660.402100,1550.244751 1651.623047,1594.300659 1632.263062,1635.958252 
	C1618.666260,1665.214600 1600.380981,1691.066162 1578.654419,1714.755981 
	C1561.903320,1733.020264 1543.444336,1749.030273 1521.600464,1760.890503 
	C1507.098022,1768.764526 1491.726196,1773.928101 1475.058838,1774.162842 
	C1433.051270,1774.754517 1405.443848,1745.830811 1407.660889,1703.934204 
	C1408.600830,1686.171021 1412.655029,1669.059570 1418.659912,1652.482910 
	C1435.195312,1606.837280 1460.865845,1566.761475 1493.927124,1531.336548 
	C1504.365479,1520.151855 1514.325684,1508.442627 1525.488037,1498.027344 
	C1552.704712,1472.633057 1580.265991,1447.592896 1608.225952,1423.021606 
	C1614.858032,1417.193237 1617.274902,1412.237305 1614.678223,1403.537354 
	C1609.652222,1386.697632 1605.919434,1369.475830 1601.323853,1352.500854 
	C1600.035400,1347.740967 1597.446167,1343.348633 1595.730347,1338.685913 
	C1590.209351,1323.681885 1594.518188,1315.014038 1608.233276,1312.479614 
	C1631.516724,1308.176758 1654.114990,1301.542480 1675.576050,1291.430664 
	C1696.884033,1281.390991 1716.048706,1268.346558 1730.585083,1249.494019 
	C1734.593262,1244.295776 1738.048706,1238.381104 1740.420776,1232.275757 
	C1744.594849,1221.532227 1738.494873,1212.849854 1725.828125,1211.480591 
M1597.830078,1622.716675 
	C1622.217529,1571.168213 1627.651001,1516.728638 1623.039307,1458.832275 
	C1617.951172,1463.185059 1614.047607,1466.531616 1610.136597,1469.869263 
	C1576.471680,1498.599365 1544.522095,1529.072266 1515.047119,1562.145264 
	C1487.677246,1592.856201 1467.571777,1627.686523 1454.590454,1666.626831 
	C1449.757690,1681.123779 1445.401245,1695.866455 1446.391846,1711.427856 
	C1447.616211,1730.660156 1458.375977,1737.710571 1473.239868,1735.999146 
	C1480.739258,1735.135376 1488.298950,1733.294312 1495.393921,1730.699219 
	C1516.797852,1722.870850 1534.050537,1708.650879 1549.541992,1692.526733 
	C1568.980347,1672.294678 1584.917480,1649.405762 1597.830078,1622.716675 
M1512.389160,1263.753296 
	C1513.883301,1260.820190 1514.340942,1258.175537 1511.034912,1255.962891 
	C1501.922363,1249.864868 1496.092285,1241.032837 1491.288208,1231.295898 
	C1490.144775,1231.898438 1489.088379,1232.152222 1488.485352,1232.817261 
	C1472.739014,1250.184448 1464.253784,1270.840576 1462.047852,1293.943604 
	C1460.862793,1306.354614 1467.355103,1310.162842 1478.738281,1304.597534 
	C1481.115479,1303.435425 1483.453247,1302.092529 1485.567505,1300.510010 
	C1497.827271,1291.334961 1507.207520,1279.963135 1512.389160,1263.753296 
z"/>
<path fill="#E9AE32" opacity="1.000000" stroke="none" 
	d="
M1572.375244,452.005371 
	C1572.375244,467.608215 1572.375244,482.213013 1572.375244,497.198608 
	C1583.121460,499.574402 1592.310913,495.936829 1601.227783,493.028137 
	C1615.494263,488.374420 1628.785156,481.434784 1640.874878,472.346313 
	C1643.472534,470.393585 1646.435547,468.263367 1649.479980,467.776855 
	C1651.945557,467.382812 1655.713135,468.568329 1657.245361,470.422913 
	C1659.614258,473.290405 1659.559326,477.312988 1656.717285,480.464264 
	C1655.619751,481.681152 1654.157471,482.578461 1652.825073,483.572754 
	C1628.572388,501.669739 1602.047607,513.749084 1571.188477,514.211975 
	C1563.005493,514.334717 1554.818970,514.230591 1547.012573,514.230591 
	C1541.482300,503.625885 1542.756470,501.151459 1555.024170,498.235565 
	C1555.024170,474.847839 1555.024170,451.304810 1555.024170,426.836517 
	C1524.168091,420.121552 1503.456177,401.627625 1495.420776,369.518829 
	C1487.113281,369.518829 1479.500366,369.521057 1471.887329,369.518250 
	C1462.887939,369.514893 1453.881470,369.723419 1444.891235,369.434662 
	C1437.364502,369.192932 1433.896851,366.405914 1433.847900,359.382355 
	C1433.712402,339.956451 1436.628296,320.970337 1444.615723,303.071136 
	C1446.637573,298.540375 1451.389282,296.783325 1455.430786,298.583160 
	C1459.992920,300.614868 1460.249634,304.517334 1459.264282,308.727417 
	C1456.548218,320.332733 1453.722046,331.912933 1451.102051,343.539734 
	C1450.539062,346.038361 1450.660767,348.691345 1450.389038,352.313477 
	C1465.316528,352.313477 1479.486694,352.313477 1494.734497,352.313477 
	C1500.689453,317.975708 1520.700562,297.011230 1555.247192,290.071960 
	C1555.604614,276.745117 1555.902588,263.853882 1556.314331,250.966263 
	C1556.553955,243.463684 1558.587158,241.310577 1564.670654,241.437012 
	C1569.049316,241.528015 1571.570435,243.436111 1571.688965,247.991852 
	C1571.922363,256.975220 1572.184937,265.958099 1572.359375,274.942627 
	C1572.449097,279.571411 1572.375244,284.203369 1572.375244,289.506775 
	C1588.081299,292.794922 1602.799316,297.765350 1614.985474,309.716736 
	C1625.586670,301.011444 1635.670410,292.479309 1646.036499,284.304962 
	C1653.283813,278.589905 1658.003906,271.916809 1660.826904,262.736481 
	C1664.310425,251.408142 1670.369141,240.866989 1675.381714,230.016495 
	C1676.761963,227.028641 1678.380249,224.150665 1679.786743,221.421478 
	C1678.744507,219.441635 1678.018433,217.948059 1677.192017,216.512268 
	C1674.009399,210.983276 1673.981689,207.577667 1678.213135,203.264526 
	C1689.299316,191.964111 1696.733643,178.204620 1704.571167,164.731430 
	C1709.690430,155.931198 1713.018677,154.892151 1720.909424,161.227219 
	C1748.043823,183.011765 1768.553101,210.207733 1785.152588,240.540619 
	C1787.064331,244.034134 1788.637695,247.711395 1790.495117,251.236481 
	C1793.093506,256.168365 1791.151611,259.661652 1786.868164,262.067963 
	C1781.939697,264.836517 1776.763672,267.160187 1771.745972,269.774719 
	C1762.657104,274.510590 1753.605957,279.318756 1745.299316,283.696198 
	C1748.670166,300.219177 1753.073242,315.631195 1754.674194,331.328918 
	C1756.386475,348.118164 1755.476929,365.176575 1755.640869,382.118195 
	C1755.653442,383.407104 1755.222656,384.743652 1754.790161,385.985748 
	C1753.253906,390.397003 1750.086548,392.305603 1745.490112,391.571106 
	C1741.106323,390.870575 1739.440918,388.090637 1739.601929,383.765594 
	C1739.923828,375.116730 1740.083374,366.461639 1740.290649,357.808685 
	C1740.929443,331.129517 1735.654907,305.634033 1724.957642,281.221832 
	C1724.291382,279.701630 1723.849976,278.080322 1723.147949,276.578949 
	C1721.355469,272.745361 1722.418945,269.365997 1724.918091,266.394592 
	C1727.603027,263.201996 1731.670776,262.154449 1734.823242,264.282227 
	C1739.123169,267.184570 1742.214600,265.485626 1745.815552,263.608185 
	C1754.305176,259.182068 1762.854980,254.871689 1771.825439,250.287064 
	C1757.693970,222.987000 1739.966919,200.167374 1716.984009,180.202209 
	C1710.504395,189.509628 1704.461792,198.189362 1698.218872,207.156677 
	C1698.977051,208.686401 1699.608521,210.163193 1700.409058,211.542007 
	C1704.889648,219.260162 1704.931030,220.022598 1699.094971,226.209213 
	C1688.327637,237.623291 1682.529297,251.775772 1676.831909,266.005219 
	C1675.108276,270.309906 1677.161987,273.556915 1679.402588,277.061188 
	C1690.077881,293.757233 1698.030884,311.624512 1700.614014,331.429626 
	C1701.769409,340.288025 1702.117798,349.284912 1702.285034,358.229187 
	C1702.437744,366.402344 1699.267578,369.372162 1690.723389,369.472260 
	C1676.392822,369.640167 1662.058716,369.482819 1647.726440,369.544189 
	C1644.125610,369.559601 1640.526123,369.885986 1637.860962,370.021790 
	C1633.752808,378.828278 1630.846924,387.071808 1626.339111,394.318970 
	C1615.598145,411.586182 1599.487427,421.574554 1579.803345,426.009491 
	C1572.597656,427.632996 1572.535034,427.608612 1572.396729,435.008911 
	C1572.296997,440.339966 1572.375977,445.674408 1572.375244,452.005371 
M1616.067749,337.580688 
	C1615.149048,336.373779 1614.230225,335.166840 1613.266357,333.900665 
	C1609.544922,336.579407 1606.500000,339.217896 1603.054810,341.138580 
	C1598.698242,343.567291 1593.968140,342.340271 1591.597534,338.691040 
	C1588.875488,334.501068 1590.607178,331.086975 1593.762573,328.148407 
	C1596.369629,325.720428 1599.193970,323.525726 1602.151123,321.034698 
	C1593.416138,312.219788 1583.205322,307.978546 1571.729370,306.554688 
	C1540.608887,302.693268 1512.670654,326.060150 1511.593018,357.202454 
	C1510.655029,384.308167 1536.670654,410.250458 1565.971680,410.670105 
	C1595.679199,411.095581 1632.780029,379.499176 1616.067749,337.580688 
M1656.256470,297.160461 
	C1646.531250,305.535431 1636.806152,313.910431 1627.830200,321.640198 
	C1631.614868,332.567017 1634.948975,342.192932 1638.370728,352.071777 
	C1654.353760,351.330444 1670.164551,355.967651 1686.534180,350.734344 
	C1685.708252,328.477020 1679.641113,308.131531 1667.065186,288.922516 
	C1663.152710,291.899994 1660.275635,294.089569 1656.256470,297.160461 
z"/>
<path fill="#E9BE00" opacity="1.000000" stroke="none" 
	d="
M1812.294067,376.939575 
	C1807.796875,433.071045 1786.290283,481.110840 1750.920288,523.260986 
	C1746.010864,529.111450 1740.613647,534.563110 1735.288086,540.049683 
	C1732.000610,543.436584 1726.898315,543.246948 1723.021729,539.310547 
	C1717.897095,534.107056 1713.174316,528.509155 1708.239624,523.116821 
	C1704.223267,518.728027 1700.149170,514.392029 1696.914551,510.908966 
	C1675.546753,524.207458 1655.350830,536.776672 1634.197388,549.941711 
	C1636.299805,558.946167 1638.600830,568.801208 1641.050537,579.292542 
	C1655.600342,575.966675 1667.456665,569.427307 1679.360229,562.987732 
	C1682.275391,561.410645 1685.168945,559.702515 1688.260742,558.567505 
	C1691.725708,557.295471 1694.866211,558.282593 1696.954712,561.520203 
	C1699.261230,565.095825 1698.743042,568.571045 1695.926880,571.551819 
	C1694.587891,572.968994 1692.855469,574.170837 1691.080688,574.995056 
	C1675.421875,582.266479 1659.814453,589.666687 1643.950317,596.465210 
	C1639.873779,598.212158 1634.942017,597.963196 1629.990356,598.691895 
	C1628.580811,595.787964 1627.006714,593.586365 1626.410767,591.145874 
	C1622.947266,576.962769 1619.456787,562.776855 1616.499390,548.483459 
	C1614.735596,539.958008 1616.811279,536.599060 1625.465332,533.323303 
	C1660.437866,520.085449 1688.278809,497.782166 1709.979248,467.539856 
	C1710.753906,466.460388 1711.548950,465.388214 1712.417358,464.384491 
	C1716.437134,459.738953 1720.605347,458.924408 1724.455688,461.990509 
	C1728.075195,464.872711 1728.759766,468.799896 1725.640381,473.507263 
	C1721.972778,479.041779 1717.776855,484.227722 1713.776489,489.539520 
	C1711.997192,491.902191 1710.135620,494.202881 1708.011353,496.914612 
	C1715.518799,504.946228 1722.714355,512.644165 1730.373535,520.838196 
	C1751.049805,499.323792 1766.843750,475.943695 1778.257324,448.266113 
	C1750.982910,436.191925 1725.277344,422.362122 1695.604980,418.703583 
	C1690.701294,428.375763 1686.518921,437.388916 1681.632446,446.002625 
	C1678.222046,452.014008 1670.255249,451.923401 1667.213135,446.002258 
	C1666.177124,443.985870 1666.128906,440.711029 1667.012573,438.586456 
	C1671.349731,428.158844 1676.208984,417.949860 1680.761230,407.609589 
	C1682.401245,403.884521 1685.335938,403.562714 1688.891357,403.339966 
	C1705.218872,402.316956 1720.634277,406.244690 1735.645996,411.930420 
	C1748.683960,416.868622 1761.474976,422.456848 1774.392822,427.714508 
	C1777.399536,428.938263 1780.477661,429.986694 1784.872681,431.616333 
	C1787.798096,420.434387 1791.359497,410.079895 1793.083008,399.428070 
	C1795.352417,385.402283 1797.348755,371.139404 1797.308105,356.984711 
	C1797.263550,341.478638 1794.778687,325.978302 1793.309570,310.479980 
	C1793.185913,309.174896 1792.496826,307.915985 1792.420654,306.615112 
	C1792.148804,301.976501 1794.661499,298.420532 1798.579346,297.652954 
	C1802.533081,296.878357 1806.692261,299.028412 1807.678223,303.559814 
	C1809.435547,311.636902 1811.159180,319.848999 1811.549805,328.068634 
	C1812.307861,344.029327 1812.132935,360.034302 1812.294067,376.939575 
z"/>
<path fill="#E9BE00" opacity="1.000000" stroke="none" 
	d="
M1446.893555,581.027100 
	C1437.043091,574.704956 1427.592529,569.103455 1418.600220,562.843567 
	C1406.961304,554.741394 1406.752808,551.737305 1414.718140,540.250427 
	C1421.727783,530.141724 1428.446045,519.830994 1436.042725,508.490234 
	C1426.409668,497.879456 1416.725830,487.212646 1406.405640,475.844971 
	C1398.648315,480.976929 1390.968140,486.058289 1383.287476,491.138641 
	C1380.790527,492.790131 1378.312622,494.471191 1375.790649,496.083374 
	C1367.540405,501.357269 1363.769775,500.669556 1358.556519,492.614227 
	C1346.919067,474.632416 1338.073242,455.360931 1332.250000,434.730438 
	C1330.898682,429.942688 1329.380127,425.175568 1328.453979,420.301025 
	C1327.283325,414.139648 1328.956055,410.736816 1332.972412,409.641693 
	C1338.510010,408.131805 1342.196411,410.293854 1344.070190,416.476074 
	C1346.183228,423.447937 1347.476685,430.728394 1350.188354,437.446106 
	C1355.759277,451.247406 1362.037720,464.763214 1368.615112,479.740448 
	C1377.378906,474.053528 1384.797485,469.278076 1392.170654,464.433441 
	C1394.669922,462.791260 1396.989990,460.874664 1399.502563,459.254883 
	C1407.907227,453.836456 1412.203247,454.553650 1417.968384,462.533051 
	C1423.225952,469.809662 1428.020386,477.435455 1433.522827,484.515930 
	C1437.767090,489.977631 1442.461792,495.191040 1447.545166,499.875824 
	C1455.582275,507.282990 1456.120972,509.282074 1450.232544,518.333313 
	C1443.548340,528.607788 1436.874268,538.888855 1429.947144,549.549622 
	C1437.678833,557.267029 1446.836914,561.943237 1455.802124,566.785950 
	C1463.102417,570.729248 1470.773804,573.979065 1478.198608,577.700134 
	C1483.976318,580.595703 1485.660278,584.124146 1483.800537,588.643311 
	C1481.972656,593.085632 1477.838745,594.774170 1472.046387,592.444519 
	C1463.734497,589.101501 1455.668335,585.147949 1446.893555,581.027100 
z"/>
<path fill="#E9BD00" opacity="1.000000" stroke="none" 
	d="
M1463.466797,129.720398 
	C1481.666626,120.983620 1482.677002,121.327293 1488.574829,139.181183 
	C1498.264648,168.514679 1506.930786,198.166840 1509.339111,229.103836 
	C1510.498779,244.001877 1509.841187,259.062927 1509.552979,274.041382 
	C1509.438843,279.963196 1506.003906,282.525696 1500.576294,282.181549 
	C1495.186035,281.839813 1493.868164,280.296967 1493.654053,273.499512 
	C1493.507324,268.840790 1493.488403,264.169250 1493.644287,259.511230 
	C1494.792114,225.219940 1488.224609,192.180038 1477.557739,159.802689 
	C1475.911865,154.807083 1474.097412,149.867050 1471.972778,143.791611 
	C1466.583008,146.246384 1461.598999,147.918304 1457.250488,150.614929 
	C1446.524902,157.266037 1436.086182,164.380051 1425.545776,171.328552 
	C1424.160278,172.241898 1422.912231,173.370438 1421.500854,174.236710 
	C1416.623657,177.230438 1411.655518,176.775085 1409.025024,173.174316 
	C1406.341431,169.500885 1407.191650,164.465469 1411.790405,161.066315 
	C1427.844849,149.200119 1444.236938,137.842010 1463.466797,129.720398 
z"/>
<path fill="#E7BC00" opacity="1.000000" stroke="none" 
	d="
M1381.732788,396.670197 
	C1378.205688,366.925659 1377.998047,338.167419 1384.814697,309.667938 
	C1385.278809,307.727661 1385.607056,305.731873 1386.298218,303.873322 
	C1388.041016,299.186951 1392.111084,296.845825 1396.385742,297.874207 
	C1401.145752,299.019348 1403.101807,302.010101 1402.072754,307.810425 
	C1400.627197,315.959473 1398.105103,323.961151 1397.197510,332.153748 
	C1394.701050,354.687378 1394.287109,377.248138 1398.948975,399.629364 
	C1399.073242,400.226440 1399.676758,400.723724 1400.663574,402.135712 
	C1413.984741,402.135712 1427.928833,402.019287 1441.869263,402.195251 
	C1447.156250,402.261993 1452.434082,403.012268 1457.717407,403.432770 
	C1462.938843,403.848389 1465.353516,406.891510 1465.698608,411.895294 
	C1466.565918,424.472412 1467.477295,437.046753 1468.275879,449.628235 
	C1468.567749,454.227783 1466.599976,457.322327 1461.787598,458.132629 
	C1456.689941,458.990936 1453.477661,457.282654 1452.063965,451.973114 
	C1450.967651,447.855774 1450.667603,443.494141 1450.325317,439.216125 
	C1449.852661,433.310852 1449.673462,427.382050 1449.321411,420.548340 
	C1445.107422,420.161194 1441.602417,419.588928 1438.093018,419.561066 
	C1424.436890,419.452576 1410.778442,419.614532 1397.122803,419.483368 
	C1387.591919,419.391846 1385.810791,417.783386 1383.803833,408.290649 
	C1383.050049,404.725555 1382.472168,401.123260 1381.732788,396.670197 
z"/>
<path fill="#E8BD00" opacity="1.000000" stroke="none" 
	d="
M1574.474854,563.331055 
	C1545.760010,564.325195 1518.848389,559.554932 1492.705933,549.997620 
	C1481.542358,545.916382 1480.113892,543.178223 1482.493896,531.251953 
	C1485.924683,514.060486 1489.100098,496.816406 1492.227417,479.566376 
	C1494.291382,468.182068 1495.993164,456.732025 1498.058594,445.348022 
	C1498.524414,442.780090 1499.563721,440.221741 1500.808960,437.912292 
	C1502.590576,434.608154 1505.678955,433.320709 1509.274902,434.445190 
	C1512.958496,435.597107 1515.881348,437.738464 1515.661621,442.216248 
	C1515.597778,443.517426 1515.447510,444.869171 1515.024902,446.089600 
	C1509.436279,462.224884 1508.848145,479.215637 1506.362549,495.886810 
	C1504.510742,508.307098 1502.263184,520.668335 1499.999756,534.205261 
	C1502.449707,535.321106 1505.255981,536.947571 1508.273315,537.916382 
	C1526.357056,543.722595 1544.821289,547.414917 1563.907349,547.416443 
	C1566.900635,547.416687 1569.907104,547.335938 1572.883789,547.580444 
	C1576.896118,547.909912 1581.057007,548.314392 1581.628540,553.655579 
	C1582.151489,558.541809 1580.643433,562.145874 1574.474854,563.331055 
z"/>
<path fill="#E9BD00" opacity="1.000000" stroke="none" 
	d="
M1635.731201,133.410126 
	C1636.414062,130.718735 1636.797729,128.738266 1637.568604,126.922188 
	C1640.298950,120.489540 1641.550049,119.717880 1648.064331,121.574226 
	C1653.806396,123.210548 1659.357544,125.505661 1665.064209,127.280937 
	C1669.653198,128.708511 1670.440918,131.752563 1669.201172,135.816727 
	C1667.926025,139.997147 1665.719116,143.109543 1660.647095,142.043442 
	C1658.083130,141.504501 1655.574463,140.702362 1652.049927,139.752075 
	C1650.613403,144.710632 1649.010742,149.316711 1647.952148,154.044632 
	C1640.494019,187.356430 1633.152954,220.694473 1625.758179,254.020523 
	C1624.967407,257.584442 1624.284546,261.193451 1623.170898,264.659210 
	C1621.751099,269.077820 1618.500977,271.010529 1613.886719,270.069672 
	C1609.235352,269.121277 1607.044434,266.107422 1607.702515,261.414886 
	C1608.300415,257.152039 1609.139404,252.913330 1610.074097,248.708893 
	C1618.560669,210.532471 1627.091797,172.365906 1635.731201,133.410126 
z"/>
<path fill="#E8BD00" opacity="1.000000" stroke="none" 
	d="
M1363.444092,244.601395 
	C1362.078979,247.703323 1361.077026,250.087234 1359.835571,253.040909 
	C1371.673828,258.650787 1383.046997,264.029663 1394.409424,269.431030 
	C1398.005981,271.140656 1401.772217,272.599304 1405.108032,274.726288 
	C1410.009155,277.851410 1410.714966,280.903717 1408.421143,285.687012 
	C1406.326538,290.054962 1403.034302,291.608612 1397.635742,289.330933 
	C1386.324219,284.558563 1375.235840,279.254547 1364.086548,274.102325 
	C1358.500244,271.520844 1353.343140,267.184753 1346.826782,272.935303 
	C1345.535645,274.074738 1340.946411,272.735291 1338.733276,271.257874 
	C1335.868774,269.345825 1335.014648,265.940094 1336.519653,262.342682 
	C1344.899170,242.313553 1355.560913,223.580658 1368.569946,206.210922 
	C1370.983032,202.988785 1377.239746,202.292206 1380.176025,204.619446 
	C1383.886475,207.560349 1384.279419,211.081711 1381.713989,215.136520 
	C1375.678467,224.676651 1369.768188,234.296066 1363.444092,244.601395 
z"/>
<path fill="#E7BC00" opacity="1.000000" stroke="none" 
	d="
M1558.151367,123.212204 
	C1548.258789,124.059555 1539.336182,124.665085 1530.422363,125.378403 
	C1525.028442,125.810043 1520.953247,122.947433 1520.382568,118.135399 
	C1519.885498,113.943810 1522.627563,110.675255 1528.158203,109.752914 
	C1534.364380,108.717918 1540.648315,107.589088 1546.906738,107.539825 
	C1562.203491,107.419395 1577.507202,107.821304 1592.803223,108.202003 
	C1595.736328,108.275009 1598.750122,108.903664 1601.543701,109.828712 
	C1605.136597,111.018387 1606.633301,113.948433 1606.221313,117.681725 
	C1605.799438,121.504173 1603.470459,123.723495 1599.730225,124.072845 
	C1597.103882,124.318161 1594.424561,124.005119 1591.769165,123.931175 
	C1580.887817,123.628189 1570.006470,123.321274 1558.151367,123.212204 
z"/>
<path fill="#E8BD00" opacity="1.000000" stroke="none" 
	d="
M1591.468750,609.583374 
	C1571.141602,611.567810 1551.648438,612.147583 1532.166260,609.546387 
	C1529.552734,609.197388 1526.892700,608.908997 1524.377563,608.171631 
	C1518.803955,606.537415 1516.765991,603.421631 1517.916870,598.856995 
	C1518.948364,594.766418 1523.107788,592.129944 1527.837280,592.470459 
	C1541.702759,593.468506 1555.558960,594.732117 1569.442871,595.276550 
	C1576.014160,595.534119 1582.636230,594.323120 1589.243042,593.899780 
	C1595.396606,593.505493 1599.170166,595.720276 1600.092163,600.050659 
	C1601.004272,604.334778 1599.027344,606.731140 1591.468750,609.583374 
z"/>
<path fill="#E8BD00" opacity="1.000000" stroke="none" 
	d="
M1319.619995,357.676514 
	C1320.968140,340.965668 1322.269775,325.156067 1323.716187,309.359711 
	C1323.923706,307.093384 1324.153320,304.182983 1325.572876,302.825226 
	C1327.701904,300.788849 1330.932251,298.667053 1333.622314,298.756165 
	C1337.283325,298.877441 1340.547729,301.543671 1340.194580,306.041138 
	C1339.833496,310.641327 1338.720947,315.184448 1338.393311,319.785004 
	C1337.382324,333.981049 1336.582764,348.192200 1335.717041,362.398438 
	C1335.555908,365.043427 1335.909912,367.810089 1335.245117,370.313263 
	C1334.207275,374.222137 1331.393555,376.402039 1327.119141,376.170441 
	C1322.890503,375.941315 1320.179321,373.799469 1319.795166,369.536407 
	C1319.468262,365.909119 1319.658447,362.235291 1319.619995,357.676514 
z"/>
<path fill="#E7BC00" opacity="1.000000" stroke="none" 
	d="
M1590.460693,166.619797 
	C1586.519531,168.021439 1582.910889,169.822372 1579.648560,169.329910 
	C1567.336670,167.471436 1555.221680,169.358810 1543.020874,170.017944 
	C1540.346313,170.162415 1536.684570,169.445694 1535.025757,167.675079 
	C1530.268677,162.597366 1533.068481,155.645569 1540.043579,154.322464 
	C1542.637817,153.830338 1545.338013,153.776855 1547.992676,153.744919 
	C1558.975342,153.612823 1569.969360,153.236160 1580.938965,153.585724 
	C1590.657349,153.895416 1591.926270,155.863754 1590.460693,166.619797 
z"/>
<path fill="#E7BC00" opacity="1.000000" stroke="none" 
	d="
M1450.278076,222.112595 
	C1442.966431,230.276520 1436.171753,237.933807 1429.371704,245.586365 
	C1428.274170,246.821487 1427.158203,248.040390 1426.040771,249.257614 
	C1423.157837,252.398163 1419.925415,252.982849 1416.350342,250.480774 
	C1412.367676,247.693329 1410.969727,243.360916 1413.717529,239.279434 
	C1417.577026,233.546570 1421.944458,228.108963 1426.514282,222.914246 
	C1430.880859,217.950500 1435.678345,213.346893 1440.484619,208.794281 
	C1444.721802,204.780853 1449.486816,204.364487 1452.860962,207.307068 
	C1456.706299,210.660568 1456.494263,214.835342 1452.185425,220.187622 
	C1451.772339,220.700836 1451.259888,221.134094 1450.278076,222.112595 
z"/>
<path fill="#E7BC00" opacity="1.000000" stroke="none" 
	d="
M1580.727539,200.151306 
	C1586.954346,201.031845 1590.057983,203.974030 1589.443481,209.599670 
	C1588.945435,214.159470 1585.519653,216.164520 1578.812622,216.197617 
	C1567.563843,216.253113 1556.313599,216.306839 1545.065796,216.184341 
	C1538.651489,216.114487 1536.262207,214.267975 1535.757568,209.645248 
	C1535.229492,204.808044 1537.853149,201.327591 1544.097168,200.678345 
	C1551.315186,199.927841 1558.646118,200.235855 1565.928711,200.144379 
	C1570.571289,200.086060 1575.215332,200.136856 1580.727539,200.151306 
z"/>
<path fill="#020200" opacity="1.000000" stroke="none" 
	d="
M1597.487671,1623.383057 
	C1584.917480,1649.405762 1568.980347,1672.294678 1549.541992,1692.526733 
	C1534.050537,1708.650879 1516.797852,1722.870850 1495.393921,1730.699219 
	C1488.298950,1733.294312 1480.739258,1735.135376 1473.239868,1735.999146 
	C1458.375977,1737.710571 1447.616211,1730.660156 1446.391846,1711.427856 
	C1445.401245,1695.866455 1449.757690,1681.123779 1454.590454,1666.626831 
	C1467.571777,1627.686523 1487.677246,1592.856201 1515.047119,1562.145264 
	C1544.522095,1529.072266 1576.471680,1498.599365 1610.136597,1469.869263 
	C1614.047607,1466.531616 1617.951172,1463.185059 1623.039307,1458.832275 
	C1627.651001,1516.728638 1622.217529,1571.168213 1597.487671,1623.383057 
z"/>
<path fill="#060500" opacity="1.000000" stroke="none" 
	d="
M1512.211304,1264.475830 
	C1507.207520,1279.963135 1497.827271,1291.334961 1485.567505,1300.510010 
	C1483.453247,1302.092529 1481.115479,1303.435425 1478.738281,1304.597534 
	C1467.355103,1310.162842 1460.862793,1306.354614 1462.047852,1293.943604 
	C1464.253784,1270.840576 1472.739014,1250.184448 1488.485352,1232.817261 
	C1489.088379,1232.152222 1490.144775,1231.898438 1491.288208,1231.295898 
	C1496.092285,1241.032837 1501.922363,1249.864868 1511.034912,1255.962891 
	C1514.340942,1258.175537 1513.883301,1260.820190 1512.211304,1264.475830 
z"/>
<path fill="#020200" opacity="1.000000" stroke="none" 
	d="
M1616.388916,338.294037 
	C1632.780029,379.499176 1595.679199,411.095581 1565.971680,410.670105 
	C1536.670654,410.250458 1510.655029,384.308167 1511.593018,357.202454 
	C1512.670654,326.060150 1540.608887,302.693268 1571.729370,306.554688 
	C1583.205322,307.978546 1593.416138,312.219788 1602.151123,321.034698 
	C1599.193970,323.525726 1596.369629,325.720428 1593.762573,328.148407 
	C1590.607178,331.086975 1588.875488,334.501068 1591.597534,338.691040 
	C1593.968140,342.340271 1598.698242,343.567291 1603.054810,341.138580 
	C1606.500000,339.217896 1609.544922,336.579407 1613.266357,333.900665 
	C1614.230225,335.166840 1615.149048,336.373779 1616.388916,338.294037 
z"/>
<path fill="#040301" opacity="1.000000" stroke="none" 
	d="
M1656.827515,296.719788 
	C1660.275635,294.089569 1663.152710,291.899994 1667.065186,288.922516 
	C1679.641113,308.131531 1685.708252,328.477020 1686.534180,350.734344 
	C1670.164551,355.967651 1654.353760,351.330444 1638.370728,352.071777 
	C1634.948975,342.192932 1631.614868,332.567017 1627.830200,321.640198 
	C1636.806152,313.910431 1646.531250,305.535431 1656.827515,296.719788 
z"/>
</svg>